<svg width="70" height="73" viewBox="0 0 70 73" fill="none" xmlns="http://www.w3.org/2000/svg">
<path d="M25.3177 5.06641C26.014 5.06641 26.6669 5.26196 27.2292 5.60363C27.7915 5.26196 28.4443 5.06641 29.1406 5.06641H39.6536C40.35 5.06641 41.0028 5.26196 41.5651 5.60363C42.1274 5.26196 42.7802 5.06641 43.4766 5.06641H53.0338C55.1452 5.06641 56.8568 6.86426 56.8568 9.08203V18.1172C56.8568 19.3811 56.2902 20.5713 55.3276 21.3297L49.4287 25.9769L51.099 41.7675C51.5412 45.948 53.3937 48.0691 56.0922 51.8484C56.5885 52.5435 56.8568 53.389 56.8568 54.2578V62.2891C56.8568 64.5068 55.1452 66.3047 53.0339 66.3047H15.7604C13.6491 66.3047 11.9375 64.5068 11.9375 62.2891V54.2578C11.9375 53.3889 12.2058 52.5435 12.7021 51.8484C15.4006 48.0691 17.253 45.948 17.6953 41.7675L19.3656 25.9769L13.4667 21.3297C12.504 20.5713 11.9375 19.3811 11.9375 18.1172V9.08203C11.9375 6.86426 13.6491 5.06641 15.7604 5.06641H25.3177Z" fill="#F4F7FA"/>
<path d="M15.7607 9.08203H25.318V15.1055H29.141V9.08203H39.654V15.1055H43.4769V9.08203H53.0342V18.1172L45.3883 24.1406L47.2998 42.2109H21.4951L23.4066 24.1406L15.7607 18.1172V9.08203Z" fill="#34364C"/>
<path d="M21.4951 46.2266H47.2998L53.0342 54.2578V62.2891H15.7607V54.2578L21.4951 46.2266Z" fill="#34364C"/>
</svg>
