<svg width="70" height="73" viewBox="0 0 70 73" fill="none" xmlns="http://www.w3.org/2000/svg">
<path d="M26.1182 16.9967C25.734 15.8882 25.524 14.6917 25.524 13.4452C25.524 7.70881 29.951 3.05859 35.4121 3.05859C40.8732 3.05859 45.3002 7.70881 45.3002 13.4452C45.3002 15.1255 44.9179 16.7183 44.2402 18.1267C45.2154 18.1976 46.163 18.6591 46.8539 19.4885C50.6077 23.9947 53.8926 30.4198 53.8926 37.8671C53.8926 43.1914 52.1475 47.1367 49.7895 49.9795L54.2681 50.8045C56.0967 51.1414 57.4306 52.8096 57.4306 54.7598V62.2891C57.4306 63.3541 57.0278 64.3755 56.3109 65.1285C55.594 65.8816 54.6216 66.3047 53.6077 66.3047L17.2165 66.3047C15.1051 66.3047 13.3936 64.5068 13.3936 62.2891V54.7598C13.3936 52.8119 14.7244 51.1449 16.5505 50.8055L20.5904 50.0548C18.2003 47.2067 16.4262 43.2393 16.4262 37.8671C16.4262 32.0568 18.5698 26.9966 21.0839 23.1187C22.6642 20.6812 24.4533 18.6119 26.1182 16.9967Z" fill="#F4F7FA"/>
<path d="M37.2861 37.3362H33.4632C33.4632 29.9627 35.5923 22.6015 40.3025 17.2133C41.0406 16.158 41.4766 14.8551 41.4766 13.4452C41.4766 9.92657 38.7612 7.07422 35.4114 7.07422C32.0617 7.07422 29.3462 9.92657 29.3462 13.4452C29.3462 15.1811 30.0073 16.7549 31.0793 17.904C27.2906 20.7412 20.2484 28.3459 20.2484 37.8671C20.2484 47.4757 27.4203 51.3658 31.1827 52.1644L17.2158 54.7598V62.2891L53.607 62.2891V54.7598L39.309 52.1257C43.1139 51.2459 50.069 47.3294 50.069 37.8671C50.069 31.6714 47.3213 26.1484 43.9762 22.1328C40.3025 25.1445 37.2861 32.1719 37.2861 37.3362Z" fill="#34364C"/>
</svg>
