<svg width="70" height="73" viewBox="0 0 70 73" fill="none" xmlns="http://www.w3.org/2000/svg">
<g clip-path="url(#clip0_592_3399)">
<path fill-rule="evenodd" clip-rule="evenodd" d="M29.1426 3.93707C29.2071 1.7692 30.8988 0.046875 32.9636 0.046875H38.698C40.7629 0.046875 42.4546 1.7692 42.5191 3.93707L42.5527 5.06641H44.4324C46.5437 5.06641 48.2553 6.86426 48.2553 9.08203V11.5176C52.4224 10.527 56.9203 11.1887 60.7378 14.5303C68.6686 21.4725 67.9389 36.0249 58.5267 43.9847C56.2553 45.9056 54.4709 47.4981 53.2421 49.1389C52.9618 49.5132 52.7217 49.8754 52.5195 50.23L56.3939 50.7804C58.29 51.0497 59.7044 52.75 59.7044 54.7598V62.2891C59.7044 64.5068 57.9929 66.3047 55.8815 66.3047H15.7802C13.6688 66.3047 11.9572 64.5068 11.9572 62.2891V54.7598C11.9572 52.75 13.3717 51.0497 15.2678 50.7804L19.1422 50.23C18.94 49.8754 18.6999 49.5132 18.4195 49.1389C17.1908 47.498 15.4063 45.9056 13.135 43.9847C3.72274 36.0249 2.99302 21.4725 10.9238 14.5303C14.7414 11.1887 19.2392 10.527 23.4064 11.5176V9.08203C23.4064 6.86426 25.1179 5.06641 27.2293 5.06641H29.109L29.1426 3.93707Z" fill="#F4F7FA"/>
<path fill-rule="evenodd" clip-rule="evenodd" d="M32.9634 4.0625H38.6978L38.8472 9.08203H44.4322V15.1055H39.0264L39.289 21.925C39.3937 21.7953 39.5017 21.6682 39.6129 21.544C44.8342 15.7149 52.5756 12.613 58.2903 17.6152C64.0246 22.6348 64.0246 34.1797 56.1291 40.8568C51.6565 44.6392 47.6505 48.2855 47.8478 53.6185L55.8813 54.7598V62.2891H15.78V54.7598L23.8134 53.6185C24.0108 48.2855 20.0047 44.6392 15.5322 40.8568C7.63663 34.1797 7.63663 22.6348 13.371 17.6152C19.0856 12.613 26.8271 15.7149 32.0484 21.544C32.1596 21.6682 32.2675 21.7953 32.3723 21.925L32.6349 15.1055H27.2291V9.08203H32.8141L32.9634 4.0625ZM27.5617 27.1254C31.066 33.1548 31.5299 40.2031 31.5299 43.2683C29.7734 43.2716 23.1518 40.2116 19.646 35.1883C17.1221 31.5718 16.4639 26.2061 18.6275 24.123C20.7911 22.04 25.3715 23.357 27.5617 27.1254ZM44.0996 27.1254C40.5952 33.1548 40.1314 40.2031 40.1314 43.2683C41.8879 43.2716 48.5095 40.2116 52.0153 35.1883C54.5392 31.5718 55.1973 26.2061 53.0338 24.123C50.8702 22.04 46.2898 23.357 44.0996 27.1254Z" fill="#34364C"/>
</g>
<defs>
<clipPath id="clip0_592_3399">
<rect width="68.8125" height="72.2812" fill="white" transform="translate(0.46875 0.046875)"/>
</clipPath>
</defs>
</svg>
