<svg width="70" height="74" viewBox="0 0 70 74" fill="none" xmlns="http://www.w3.org/2000/svg">
<path d="M29.344 1.30571C30.6024 1.15707 31.8492 1.67263 32.6734 2.68243L40.4731 12.2381C49.4301 14.5631 54.6198 21.6477 57.4902 30.4919C60.4479 39.6052 61.1795 51.1748 61.1795 63.0389C61.1795 65.2567 59.4679 67.0546 57.3566 67.0546H21.7126C19.683 67.0546 18.0072 65.3887 17.8955 63.2601C17.7957 61.3605 18.2118 58.0645 19.4797 54.6979L19.503 54.6363C15.9025 56.6663 11.9067 56.1801 8.94041 53.9617C5.33553 51.2657 3.33113 45.988 5.62119 40.7761C7.27258 37.0177 9.05241 35.0275 10.3988 33.5223C11.6565 32.1163 12.1807 31.4979 12.5514 29.94C14.7995 20.4943 19.4246 15.0529 24.3914 12.5696C24.3196 11.4936 24.378 10.4568 24.5037 9.51557C24.8165 7.17265 25.5951 5.00753 26.3888 3.42473C26.979 2.24787 28.0856 1.45434 29.344 1.30571Z" fill="#F4F7FA"/>
<path fill-rule="evenodd" clip-rule="evenodd" d="M38.4058 15.8741L29.7719 5.29639C28.5221 7.78868 27.3104 12.1874 29.0524 15.3628C28.2069 15.4419 27.3989 15.5921 26.7739 15.8556C22.7865 17.5364 18.4113 21.879 16.2609 30.9142C15.6382 33.5304 14.5175 34.7832 13.1855 36.2723C11.9291 37.6769 10.4847 39.2916 9.09291 42.4591C6.22573 48.9845 13.9636 55.5099 19.6059 49.5831C22.7781 46.251 25.5509 44.8755 27.8789 43.7206C31.2295 42.0584 33.6586 40.8533 35.0308 34.9298C35.6836 37.6928 35.4225 44.2136 29.1554 48.1924C22.8883 52.1712 21.5827 60.5524 21.7132 63.0391H57.3572C57.3572 39.4305 54.3816 19.0327 38.4058 15.8741Z" fill="#34364C"/>
<ellipse cx="27.7295" cy="27.9023" rx="2.86719" ry="3.01172" fill="#F4F7FA"/>
</svg>
