<svg width="70" height="73" viewBox="0 0 70 73" fill="none" xmlns="http://www.w3.org/2000/svg">
<path d="M22.5532 41.7095C22.0972 42.3635 21.5529 43.0446 20.9185 43.7453C18.6797 46.2179 15.9339 48.2523 14.1618 49.316L13.8637 49.4949C12.6726 50.2099 11.9375 51.5404 11.9375 52.9814V62.6641C11.9375 64.8818 13.6491 66.6797 15.7604 66.6797H53.0339C55.1452 66.6797 56.8568 64.8818 56.8568 62.6641V52.9814C56.8568 51.5404 56.1217 50.2099 54.9306 49.4949L54.6325 49.316C52.8604 48.2523 50.1146 46.2179 47.8757 43.7453C47.2413 43.0446 46.6971 42.3635 46.241 41.7095C47.9188 41.285 49.1654 39.6981 49.1654 37.8054V31.2688C49.1654 29.964 48.5619 28.7406 47.5471 27.9881L45.9235 26.7842C46.8603 24.8721 47.3905 22.7023 47.3905 20.4044C47.3905 12.695 41.4407 6.44531 34.1013 6.44531C26.7619 6.44531 20.8121 12.695 20.8121 20.4044C20.8121 22.8316 21.4034 25.1152 22.4405 27.1033L21.2471 27.9881C20.2323 28.7406 19.6288 29.964 19.6288 31.2688V37.8054C19.6288 39.6981 20.8754 41.285 22.5532 41.7095Z" fill="#F4F7FA"/>
<path d="M43.5679 20.4044C43.5679 23.2883 42.3991 25.8854 40.532 27.7017L45.3428 31.2688V37.8054H40.6332C40.8603 40.8354 42.7111 43.8677 45.1059 46.5127C47.6475 49.3197 50.7054 51.5836 52.7361 52.8025L53.0342 52.9814V62.6641H15.7607V52.9814L16.0588 52.8025C18.0896 51.5836 21.1474 49.3197 23.689 46.5127C26.0839 43.8677 27.9346 40.8354 28.1618 37.8054H23.4521V31.2688L27.9326 27.9466C25.9138 26.1231 24.6354 23.4206 24.6354 20.4044C24.6354 14.9128 28.8736 10.4609 34.1016 10.4609C39.3297 10.4609 43.5679 14.9128 43.5679 20.4044Z" fill="#34364C"/>
</svg>
