<svg width="70" height="73" viewBox="0 0 70 73" fill="none" xmlns="http://www.w3.org/2000/svg">
<path d="M17.9222 10.0859C17.9222 11.0771 18.074 12.0308 18.3545 12.9228L16.4675 13.8526C14.9031 12.1493 12.7075 11.0899 10.2764 11.0899C5.52586 11.0899 1.6748 15.135 1.6748 20.125C1.6748 24.5731 4.73486 28.2704 8.76432 29.021L13.2965 45.3431C13.3911 45.6838 13.5283 46.0099 13.7044 46.3127L16.3166 50.8025L16.3005 50.8055C14.4744 51.1449 13.1436 52.8119 13.1436 54.7598V62.2891C13.1436 64.5068 14.8551 66.3047 16.9665 66.3047L53.3577 66.3047C54.3716 66.3047 55.344 65.8816 56.0609 65.1285C56.7778 64.3755 57.1806 63.3541 57.1806 62.2891V54.7598C57.1806 52.8096 55.8467 51.1414 54.0181 50.8045L53.9412 50.7903L56.5462 46.3127C56.7224 46.0099 56.8596 45.6838 56.9542 45.3431L61.4863 29.021C65.5158 28.2704 68.5758 24.5731 68.5758 20.125C68.5758 15.135 64.7248 11.0899 59.9743 11.0899C57.5401 11.0899 55.342 12.152 53.7773 13.8591L51.8936 12.9309C52.1757 12.0366 52.3284 11.0801 52.3284 10.0859C52.3284 5.09596 48.4774 1.05078 43.7269 1.05078C38.9764 1.05078 35.1253 5.09596 35.1253 10.0859C35.1253 5.09596 31.2743 1.05078 26.5238 1.05078C21.7733 1.05078 17.9222 5.09596 17.9222 10.0859Z" fill="#F4F7FA"/>
<path d="M28.2385 14.7724C30.0302 14.0483 31.3018 12.2231 31.3018 10.0859C31.3018 7.31373 29.1623 5.06641 26.5231 5.06641C23.8839 5.06641 21.7445 7.31373 21.7445 10.0859C21.7445 12.6478 23.5715 14.7613 25.9316 15.0674L23.8005 33.1758L13.5273 23.8034C14.4666 22.8868 15.0544 21.578 15.0544 20.125C15.0544 17.3528 12.9149 15.1055 10.2757 15.1055C7.63654 15.1055 5.49707 17.3528 5.49707 20.125C5.49707 22.8972 7.63654 25.1445 10.2757 25.1445C10.7403 25.1445 11.1894 25.0749 11.6141 24.945L16.9658 44.2188L22.5001 53.7313L16.9658 54.7598V62.2891L53.357 62.2891V54.7598L47.7517 53.7271L53.2835 44.2188L58.6353 24.945C59.0599 25.0749 59.509 25.1445 59.9736 25.1445C62.6128 25.1445 64.7523 22.8972 64.7523 20.125C64.7523 17.3528 62.6128 15.1055 59.9736 15.1055C57.3345 15.1055 55.195 17.3528 55.195 20.125C55.195 21.578 55.7827 22.8868 56.7221 23.8034L46.4488 33.1758L44.3178 15.0674C46.6778 14.7613 48.5049 12.6478 48.5049 10.0859C48.5049 7.31373 46.3654 5.06641 43.7262 5.06641C41.0871 5.06641 38.9476 7.31373 38.9476 10.0859C38.9476 12.2231 40.2191 14.0483 42.0109 14.7724L35.1247 31.168L28.2385 14.7724Z" fill="#34364C"/>
</svg>
