<svg width="70" height="73" viewBox="0 0 70 73" fill="none" xmlns="http://www.w3.org/2000/svg">
<path d="M28.594 1.18071C29.8524 1.03207 31.0992 1.54763 31.9234 2.55743L39.7231 12.1131C48.6801 14.4381 53.8698 21.5227 56.7402 30.3669C59.6979 39.4802 60.4295 51.0498 60.4295 62.9139C60.4295 65.1317 58.7179 66.9296 56.6066 66.9296H20.9626C18.933 66.9296 17.2572 65.2637 17.1455 63.1351C17.0457 61.2355 17.4618 57.9395 18.7297 54.5729L18.753 54.5113C15.1525 56.5413 11.1567 56.0551 8.19041 53.8367C4.58553 51.1407 2.58113 45.863 4.87119 40.6511C6.52258 36.8927 8.30241 34.9025 9.64885 33.3973C10.9065 31.9913 11.4307 31.3729 11.8014 29.815C14.0495 20.3693 18.6746 14.9279 23.6414 12.4446C23.5696 11.3686 23.628 10.3318 23.7537 9.39057C24.0665 7.04765 24.8451 4.88253 25.6388 3.29973C26.229 2.12287 27.3356 1.32934 28.594 1.18071Z" fill="#34364C"/>
<path fill-rule="evenodd" clip-rule="evenodd" d="M37.6558 15.7491L29.0219 5.17139C27.7721 7.66368 26.5604 12.0624 28.3024 15.2378C27.4569 15.3169 26.6489 15.4671 26.0239 15.7306C22.0365 17.4114 17.6613 21.754 15.5109 30.7892C14.8882 33.4054 13.7675 34.6582 12.4355 36.1473C11.1791 37.5519 9.73466 39.1666 8.34291 42.3341C5.47573 48.8595 13.2136 55.3849 18.8559 49.4581C22.0281 46.126 24.8009 44.7505 27.1289 43.5956C30.4795 41.9334 32.9086 40.7283 34.2808 34.8048C34.9336 37.5678 34.6725 44.0886 28.4054 48.0674C22.1383 52.0462 20.8327 60.4274 20.9632 62.9141H56.6072C56.6072 39.3055 53.6316 18.9077 37.6558 15.7491Z" fill="#F4F7FA"/>
<ellipse cx="26.9795" cy="27.7773" rx="2.86719" ry="3.01172" fill="#34364C"/>
</svg>
