<svg width="70" height="73" viewBox="0 0 70 73" fill="none" xmlns="http://www.w3.org/2000/svg">
<path d="M25.3177 5.69141C26.014 5.69141 26.6669 5.88696 27.2292 6.22863C27.7915 5.88696 28.4443 5.69141 29.1406 5.69141H39.6536C40.35 5.69141 41.0028 5.88696 41.5651 6.22863C42.1274 5.88696 42.7802 5.69141 43.4766 5.69141H53.0338C55.1452 5.69141 56.8568 7.48926 56.8568 9.70703V18.7422C56.8568 20.0061 56.2902 21.1963 55.3276 21.9547L49.4287 26.6019L51.099 42.3925C51.5412 46.573 53.3937 48.6941 56.0922 52.4734C56.5885 53.1685 56.8568 54.014 56.8568 54.8828V62.9141C56.8568 65.1318 55.1452 66.9297 53.0339 66.9297H15.7604C13.6491 66.9297 11.9375 65.1318 11.9375 62.9141V54.8828C11.9375 54.0139 12.2058 53.1685 12.7021 52.4734C15.4006 48.6941 17.253 46.573 17.6953 42.3925L19.3656 26.6019L13.4667 21.9547C12.504 21.1963 11.9375 20.0061 11.9375 18.7422V9.70703C11.9375 7.48926 13.6491 5.69141 15.7604 5.69141H25.3177Z" fill="#34364C"/>
<path d="M15.7607 9.70703H25.318V15.7305H29.141V9.70703H39.654V15.7305H43.4769V9.70703H53.0342V18.7422L45.3883 24.7656L47.2998 42.8359H21.4951L23.4066 24.7656L15.7607 18.7422V9.70703Z" fill="#F4F7FA"/>
<path d="M21.4951 46.8516H47.2998L53.0342 54.8828V62.9141H15.7607V54.8828L21.4951 46.8516Z" fill="#F4F7FA"/>
</svg>
