<svg width="70" height="73" viewBox="0 0 70 73" fill="none" xmlns="http://www.w3.org/2000/svg">
<path d="M26.1182 17.6217C25.734 16.5132 25.524 15.3167 25.524 14.0702C25.524 8.33381 29.951 3.68359 35.4121 3.68359C40.8732 3.68359 45.3002 8.33381 45.3002 14.0702C45.3002 15.7505 44.9179 17.3433 44.2402 18.7517C45.2154 18.8226 46.163 19.2841 46.8539 20.1135C50.6077 24.6197 53.8926 31.0448 53.8926 38.4921C53.8926 43.8164 52.1475 47.7617 49.7895 50.6045L54.2681 51.4295C56.0967 51.7664 57.4306 53.4346 57.4306 55.3848V62.9141C57.4306 63.9791 57.0278 65.0005 56.3109 65.7535C55.594 66.5066 54.6216 66.9297 53.6077 66.9297L17.2165 66.9297C15.1051 66.9297 13.3936 65.1318 13.3936 62.9141V55.3848C13.3936 53.4369 14.7244 51.7699 16.5505 51.4305L20.5904 50.6798C18.2003 47.8317 16.4262 43.8643 16.4262 38.4921C16.4262 32.6818 18.5698 27.6216 21.0839 23.7437C22.6642 21.3062 24.4533 19.2369 26.1182 17.6217Z" fill="#34364C"/>
<path d="M37.2861 37.9612H33.4632C33.4632 30.5877 35.5923 23.2265 40.3025 17.8383C41.0406 16.783 41.4766 15.4801 41.4766 14.0702C41.4766 10.5516 38.7612 7.69922 35.4114 7.69922C32.0617 7.69922 29.3462 10.5516 29.3462 14.0702C29.3462 15.8061 30.0073 17.3799 31.0793 18.529C27.2906 21.3662 20.2484 28.9709 20.2484 38.4921C20.2484 48.1007 27.4203 51.9908 31.1827 52.7894L17.2158 55.3848V62.9141L53.607 62.9141V55.3848L39.309 52.7507C43.1139 51.8709 50.069 47.9544 50.069 38.4921C50.069 32.2964 47.3213 26.7734 43.9762 22.7578C40.3025 25.7695 37.2861 32.7969 37.2861 37.9612Z" fill="#F4F7FA"/>
</svg>
