<svg width="70" height="73" viewBox="0 0 70 73" fill="none" xmlns="http://www.w3.org/2000/svg">
<path d="M23.0532 41.5845C22.5972 42.2385 22.0529 42.9196 21.4185 43.6203C19.1797 46.0929 16.4339 48.1273 14.6618 49.191L14.3637 49.3699C13.1726 50.0849 12.4375 51.4154 12.4375 52.8564V62.5391C12.4375 64.7568 14.1491 66.5547 16.2604 66.5547H53.5339C55.6452 66.5547 57.3568 64.7568 57.3568 62.5391V52.8564C57.3568 51.4154 56.6217 50.0849 55.4306 49.3699L55.1325 49.191C53.3604 48.1273 50.6146 46.0929 48.3757 43.6203C47.7413 42.9196 47.1971 42.2385 46.741 41.5845C48.4188 41.16 49.6654 39.5731 49.6654 37.6804V31.1438C49.6654 29.839 49.0619 28.6156 48.0471 27.8631L46.4235 26.6592C47.3603 24.7471 47.8905 22.5773 47.8905 20.2794C47.8905 12.57 41.9407 6.32031 34.6013 6.32031C27.2619 6.32031 21.3121 12.57 21.3121 20.2794C21.3121 22.7066 21.9034 24.9902 22.9405 26.9783L21.7471 27.8631C20.7323 28.6156 20.1288 29.839 20.1288 31.1438V37.6804C20.1288 39.5731 21.3754 41.16 23.0532 41.5845Z" fill="#34364C"/>
<path d="M44.0679 20.2794C44.0679 23.1633 42.8991 25.7604 41.032 27.5767L45.8428 31.1438V37.6804H41.1332C41.3603 40.7104 43.2111 43.7427 45.6059 46.3877C48.1475 49.1947 51.2054 51.4586 53.2361 52.6775L53.5342 52.8564V62.5391H16.2607V52.8564L16.5588 52.6775C18.5896 51.4586 21.6474 49.1947 24.189 46.3877C26.5839 43.7427 28.4346 40.7104 28.6618 37.6804H23.9521V31.1438L28.4326 27.8216C26.4138 25.9981 25.1354 23.2956 25.1354 20.2794C25.1354 14.7878 29.3736 10.3359 34.6016 10.3359C39.8297 10.3359 44.0679 14.7878 44.0679 20.2794Z" fill="#F4F7FA"/>
</svg>
