<svg width="70" height="73" viewBox="0 0 70 73" fill="none" xmlns="http://www.w3.org/2000/svg">
<g clip-path="url(#clip0_592_3380)">
<path fill-rule="evenodd" clip-rule="evenodd" d="M29.1426 4.56207C29.2071 2.3942 30.8988 0.671875 32.9636 0.671875H38.698C40.7629 0.671875 42.4546 2.3942 42.5191 4.56207L42.5527 5.69141H44.4324C46.5437 5.69141 48.2553 7.48926 48.2553 9.70703V12.1426C52.4224 11.152 56.9203 11.8137 60.7378 15.1553C68.6686 22.0975 67.9389 36.6499 58.5267 44.6097C56.2553 46.5306 54.4709 48.1231 53.2421 49.7639C52.9618 50.1382 52.7217 50.5004 52.5195 50.855L56.3939 51.4054C58.29 51.6747 59.7044 53.375 59.7044 55.3848V62.9141C59.7044 65.1318 57.9929 66.9297 55.8815 66.9297H15.7802C13.6688 66.9297 11.9572 65.1318 11.9572 62.9141V55.3848C11.9572 53.375 13.3717 51.6747 15.2678 51.4054L19.1422 50.855C18.94 50.5004 18.6999 50.1382 18.4195 49.7639C17.1908 48.123 15.4063 46.5306 13.135 44.6097C3.72274 36.6499 2.99302 22.0975 10.9238 15.1553C14.7414 11.8137 19.2392 11.152 23.4064 12.1426V9.70703C23.4064 7.48926 25.1179 5.69141 27.2293 5.69141H29.109L29.1426 4.56207Z" fill="#34364C"/>
<path fill-rule="evenodd" clip-rule="evenodd" d="M32.9634 4.6875H38.6978L38.8472 9.70703H44.4322V15.7305H39.0264L39.289 22.55C39.3937 22.4203 39.5017 22.2932 39.6129 22.169C44.8342 16.3399 52.5756 13.238 58.2903 18.2402C64.0246 23.2598 64.0246 34.8047 56.1291 41.4818C51.6565 45.2642 47.6505 48.9105 47.8478 54.2435L55.8813 55.3848V62.9141H15.78V55.3848L23.8134 54.2435C24.0108 48.9105 20.0047 45.2642 15.5322 41.4818C7.63663 34.8047 7.63663 23.2598 13.371 18.2402C19.0856 13.238 26.8271 16.3399 32.0484 22.169C32.1596 22.2932 32.2675 22.4203 32.3723 22.55L32.6349 15.7305H27.2291V9.70703H32.8141L32.9634 4.6875ZM27.5617 27.7504C31.066 33.7798 31.5299 40.8281 31.5299 43.8933C29.7734 43.8966 23.1518 40.8366 19.646 35.8133C17.1221 32.1968 16.4639 26.8311 18.6275 24.748C20.7911 22.665 25.3715 23.982 27.5617 27.7504ZM44.0996 27.7504C40.5952 33.7798 40.1314 40.8281 40.1314 43.8933C41.8879 43.8966 48.5095 40.8366 52.0153 35.8133C54.5392 32.1968 55.1973 26.8311 53.0338 24.748C50.8702 22.665 46.2898 23.982 44.0996 27.7504Z" fill="#F4F7FA"/>
</g>
<defs>
<clipPath id="clip0_592_3380">
<rect width="68.8125" height="72.2812" fill="white" transform="translate(0.46875 0.671875)"/>
</clipPath>
</defs>
</svg>
