<svg width="70" height="73" viewBox="0 0 70 73" fill="none" xmlns="http://www.w3.org/2000/svg">
<path d="M18.1717 10.5859C18.1717 11.5771 18.3235 12.5308 18.604 13.4228L16.717 14.3526C15.1526 12.6493 12.957 11.5899 10.5259 11.5899C5.77537 11.5899 1.92432 15.635 1.92432 20.625C1.92432 25.0731 4.98437 28.7704 9.01383 29.521L13.546 45.8431C13.6406 46.1838 13.7778 46.5099 13.954 46.8127L16.5661 51.3025L16.55 51.3055C14.7239 51.6449 13.3931 53.3119 13.3931 55.2598V62.7891C13.3931 65.0068 15.1046 66.8047 17.216 66.8047L53.6072 66.8047C54.6211 66.8047 55.5935 66.3816 56.3104 65.6285C57.0273 64.8755 57.4301 63.8541 57.4301 62.7891V55.2598C57.4301 53.3096 56.0962 51.6414 54.2676 51.3045L54.1907 51.2903L56.7957 46.8127C56.9719 46.5099 57.1091 46.1838 57.2037 45.8431L61.7358 29.521C65.7653 28.7704 68.8254 25.0731 68.8254 20.625C68.8254 15.635 64.9743 11.5899 60.2238 11.5899C57.7896 11.5899 55.5915 12.652 54.0268 14.3591L52.1431 13.4309C52.4252 12.5366 52.578 11.5801 52.578 10.5859C52.578 5.59596 48.7269 1.55078 43.9764 1.55078C39.2259 1.55078 35.3748 5.59596 35.3748 10.5859C35.3748 5.59596 31.5238 1.55078 26.7733 1.55078C22.0228 1.55078 18.1717 5.59596 18.1717 10.5859Z" fill="#34364C"/>
<path d="M28.4889 15.2724C30.2807 14.5483 31.5522 12.7231 31.5522 10.5859C31.5522 7.81373 29.4128 5.56641 26.7736 5.56641C24.1344 5.56641 21.995 7.81373 21.995 10.5859C21.995 13.1478 23.822 15.2613 26.1821 15.5674L24.051 33.6758L13.7778 24.3034C14.7171 23.3868 15.3049 22.078 15.3049 20.625C15.3049 17.8528 13.1654 15.6055 10.5262 15.6055C7.88703 15.6055 5.74756 17.8528 5.74756 20.625C5.74756 23.3972 7.88703 25.6445 10.5262 25.6445C10.9908 25.6445 11.4399 25.5749 11.8646 25.445L17.2163 44.7188L22.7506 54.2313L17.2163 55.2598V62.7891L53.6075 62.7891V55.2598L48.0022 54.2271L53.534 44.7188L58.8858 25.445C59.3104 25.5749 59.7595 25.6445 60.2241 25.6445C62.8633 25.6445 65.0028 23.3972 65.0028 20.625C65.0028 17.8528 62.8633 15.6055 60.2241 15.6055C57.5849 15.6055 55.4455 17.8528 55.4455 20.625C55.4455 22.078 56.0332 23.3868 56.9725 24.3034L46.6993 33.6758L44.5683 15.5674C46.9283 15.2613 48.7554 13.1478 48.7554 10.5859C48.7554 7.81373 46.6159 5.56641 43.9767 5.56641C41.3376 5.56641 39.1981 7.81373 39.1981 10.5859C39.1981 12.7231 40.4696 14.5483 42.2614 15.2724L35.3752 31.668L28.4889 15.2724Z" fill="#F4F7FA"/>
</svg>
