<?xml version="1.0" encoding="UTF-8" standalone="no"?>
<!DOCTYPE svg PUBLIC "-//W3C//DTD SVG 1.1//EN" "http://www.w3.org/Graphics/SVG/1.1/DTD/svg11.dtd">
<svg xmlns="http://www.w3.org/2000/svg" version="1.1" viewBox="0 0 379 331">
<g stroke-width="2.00" fill="none" stroke-linecap="butt">
<path stroke="#828281" vector-effect="non-scaling-stroke" d="
  M 286.87 119.15
  A 1.49 1.49 14.9 0 1 285.92 117.51
  Q 286.61 113.19 283.65 111.35
  Q 283.63 111.34 282.29 110.77
  Q 279.43 109.55 280.29 104.57
  A 1.72 1.72 -9.7 0 1 281.15 103.36
  Q 288.54 99.25 283.43 92.91
  A 1.01 1.01 40.0 0 1 283.33 91.81
  Q 286.35 86.02 283.63 80.10
  Q 282.71 78.09 281.26 76.87
  Q 279.68 75.55 277.66 74.88
  Q 270.82 72.62 264.09 75.14
  Q 259.82 76.74 258.33 81.03
  Q 256.27 86.99 259.25 92.32
  A 0.50 0.50 56.7 0 1 259.12 92.95
  Q 254.39 96.74 257.81 101.19
  Q 258.82 102.49 261.45 103.40
  A 0.97 0.90 3.6 0 1 262.07 104.05
  Q 262.83 106.99 261.65 109.72
  A 1.05 0.94 3.1 0 1 260.94 110.29
  Q 255.81 111.46 256.30 117.62
  A 1.84 1.43 -23.8 0 1 255.52 119.07
  L 251.12 122.25
  A 0.63 0.53 -40.3 0 1 250.38 122.25
  L 247.62 119.59
  A 0.89 0.75 -63.6 0 1 247.42 118.77
  L 248.43 114.74
  A 1.72 1.01 52.5 0 0 248.31 113.79
  Q 243.21 100.82 249.26 88.26
  Q 252.49 81.55 252.76 74.20
  Q 252.88 70.98 252.14 68.37
  Q 251.23 65.12 249.44 63.06
  Q 242.55 55.16 231.07 53.87
  A 0.86 0.84 21.1 0 0 230.28 54.21
  L 226.23 59.79
  A 1.47 1.44 9.4 0 1 225.46 60.33
  Q 221.35 61.53 217.10 61.99
  Q 211.79 62.57 210.13 63.53
  Q 206.15 65.84 206.13 71.06
  Q 206.12 73.61 206.33 74.95
  Q 206.69 77.27 208.38 78.46
  Q 209.11 78.97 209.61 79.71
  Q 213.20 84.95 216.50 84.00
  Q 219.43 83.16 222.02 82.10
  Q 223.73 81.39 222.70 82.93
  Q 218.60 89.00 213.32 94.07
  Q 209.78 97.47 207.59 101.74
  Q 206.05 104.73 206.30 108.05
  Q 206.71 113.53 209.32 118.34
  A 1.08 0.95 -40.0 0 1 209.15 119.48
  L 204.22 125.27
  A 0.92 0.67 -59.4 0 1 203.45 125.60
  Q 201.92 125.25 200.84 124.13
  A 0.78 0.72 -56.1 0 1 200.71 123.30
  Q 203.20 117.64 197.82 114.50
  A 1.45 1.45 -85.1 0 1 197.20 113.76
  Q 191.78 99.43 193.94 85.37
  A 1.64 1.61 -10.7 0 1 194.75 84.21
  Q 203.44 79.34 198.62 72.94
  Q 197.52 71.48 196.78 70.26
  Q 195.93 68.85 194.83 67.61
  A 1.57 1.41 24.6 0 1 194.46 66.76
  Q 193.69 57.35 198.53 50.06
  Q 199.39 48.76 197.75 48.72
  L 191.99 48.57
  A 1.36 0.43 46.5 0 1 191.18 48.12
  L 188.98 46.20
  A 1.54 0.93 26.3 0 1 188.49 45.43
  Q 187.46 38.80 181.27 39.58
  Q 178.88 39.89 177.57 41.17
  Q 175.98 42.71 175.93 45.19
  A 1.14 1.04 -21.6 0 1 175.54 45.99
  L 172.80 48.34
  A 1.50 1.10 -58.6 0 1 171.93 48.70
  L 166.20 48.75
  Q 164.79 48.76 165.55 49.92
  Q 170.66 57.75 169.80 67.00
  A 1.40 1.26 -22.0 0 1 169.39 67.84
  Q 168.32 68.91 167.52 70.17
  Q 166.87 71.19 165.45 72.88
  Q 163.10 75.70 164.51 79.62
  Q 165.73 82.98 169.31 83.76
  A 1.22 1.22 -88.2 0 1 170.25 84.76
  Q 172.65 99.89 166.88 113.98
  A 1.41 1.18 -5.4 0 1 166.23 114.64
  Q 163.20 116.08 162.68 120.04
  A 0.43 0.42 -76.7 0 1 162.12 120.39
  Q 160.93 119.96 160.32 119.38
  A 1.35 0.92 -74.4 0 1 160.02 118.49
  Q 160.13 113.67 157.71 109.72
  Q 156.41 107.60 156.13 105.94
  Q 153.93 92.94 155.74 79.81
  A 1.05 0.97 -12.0 0 1 156.25 79.09
  Q 158.36 77.88 158.70 75.69
  Q 158.81 74.93 157.99 72.07
  Q 157.46 70.24 157.70 68.24
  Q 158.20 64.12 155.58 62.32
  Q 154.03 61.25 150.19 61.24
  Q 138.29 61.22 126.39 61.30
  Q 124.05 61.32 122.86 61.94
  Q 120.93 62.96 120.50 65.00
  Q 120.27 66.10 120.21 70.10
  Q 120.19 71.09 119.50 73.63
  Q 118.61 76.94 121.76 79.05
  A 1.14 1.06 13.8 0 1 122.26 79.81
  Q 124.21 93.09 121.88 106.23
  Q 121.59 107.86 120.30 109.91
  Q 117.89 113.76 117.98 118.50
  A 1.03 0.86 74.6 0 1 117.61 119.31
  Q 115.89 120.53 114.53 118.67
  A 1.38 1.07 -64.5 0 1 114.33 117.76
  Q 115.02 112.44 109.57 110.22
  A 1.81 1.77 2.7 0 1 108.53 109.10
  Q 107.67 106.42 108.40 104.03
  A 1.03 0.92 -2.9 0 1 109.03 103.41
  Q 112.60 102.16 113.44 100.19
  Q 115.29 95.83 111.76 93.33
  A 1.14 1.14 -59.8 0 1 111.39 91.92
  Q 113.94 86.48 112.31 81.42
  Q 111.39 78.54 109.22 76.77
  Q 107.00 74.97 103.94 74.31
  Q 98.66 73.18 93.75 74.51
  Q 88.69 75.88 86.81 79.81
  Q 83.93 85.84 87.26 92.31
  A 0.57 0.55 -31.5 0 1 87.07 93.03
  Q 83.09 95.77 85.31 100.44
  Q 86.21 102.32 89.57 103.30
  A 0.94 0.83 2.8 0 1 90.20 103.91
  Q 90.76 106.12 90.24 108.68
  A 2.37 2.35 -3.5 0 1 88.66 110.45
  Q 83.92 112.00 84.54 117.08
  A 2.22 2.22 74.1 0 1 83.27 119.37
  Q 77.34 122.13 78.04 128.52
  Q 78.25 130.50 78.25 132.56
  A 2.21 2.20 -78.5 0 0 79.59 134.59
  Q 84.47 136.68 89.50 137.23
  Q 99.45 138.34 109.40 137.31
  Q 109.52 137.30 110.58 137.07
  Q 112.11 136.74 112.29 138.45
  A 0.74 0.69 -85.6 0 0 112.79 139.08
  Q 133.71 145.05 155.20 141.40
  A 0.67 0.64 71.7 0 1 155.89 141.77
  Q 157.35 144.80 161.06 145.44
  Q 180.92 148.87 200.27 146.16
  Q 204.08 145.63 208.28 142.94
  A 1.57 1.54 32.9 0 1 209.35 142.72
  Q 227.85 145.78 246.23 142.85
  Q 250.36 142.19 252.31 140.56
  Q 254.04 139.12 253.64 136.30
  A 0.34 0.34 3.1 0 1 254.06 135.93
  Q 270.68 139.72 287.75 136.00
  Q 291.75 135.13 292.31 131.94
  Q 292.58 130.40 292.39 126.55
  Q 292.11 121.10 286.87 119.15"
/>
<path stroke="#dadbd7" vector-effect="non-scaling-stroke" d="
  M 74.75 154.29
  L 74.71 154.50"
/>
<path stroke="#828281" vector-effect="non-scaling-stroke" d="
  M 74.71 154.50
  Q 67.97 154.50 61.22 154.50
  Q 56.94 154.50 56.79 154.52
  Q 53.81 154.94 53.14 157.68
  Q 53.01 158.24 52.98 163.33
  Q 52.94 170.71 53.06 172.69
  Q 53.20 175.03 55.75 176.04"
/>
<path stroke="#b0b6b6" vector-effect="non-scaling-stroke" d="
  M 55.75 176.04
  L 54.50 176.46"
/>
<path stroke="#828281" vector-effect="non-scaling-stroke" d="
  M 54.50 176.46
  Q 47.44 176.38 40.38 176.49
  Q 40.25 176.49 38.63 176.40
  Q 36.39 176.29 35.18 177.73
  Q 34.25 178.84 34.25 181.51
  Q 34.25 186.53 34.25 191.56
  Q 34.25 191.69 34.16 193.43
  Q 33.92 198.25 38.75 198.25
  Q 56.00 198.25 73.25 198.25
  A 1.47 1.42 -24.9 0 1 74.15 198.56
  Q 75.62 199.73 77.94 202.06
  Q 110.04 234.34 182.00 306.00
  Q 183.61 307.60 186.06 307.09
  Q 187.61 306.76 189.34 305.04
  Q 242.71 252.04 295.90 198.85
  A 1.25 1.23 21.6 0 1 296.75 198.49
  Q 324.76 197.76 329.75 198.25
  Q 336.68 198.93 336.37 192.69
  Q 336.25 190.36 336.25 190.31
  Q 336.25 185.28 336.25 180.24
  Q 336.25 176.57 332.60 176.55
  L 314.50 176.46"
/>
<path stroke="#828281" vector-effect="non-scaling-stroke" d="
  M 314.50 176.46
  Q 315.65 175.75 316.47 174.75
  Q 317.19 173.86 317.29 172.40
  Q 317.60 167.58 317.31 159.19
  Q 317.22 156.31 315.39 155.17
  Q 314.33 154.50 311.48 154.50
  Q 303.89 154.50 296.29 154.50"
/>
<path stroke="#b0b6b6" vector-effect="non-scaling-stroke" d="
  M 296.29 154.50
  L 296.21 154.25"
/>
<path stroke="#828281" vector-effect="non-scaling-stroke" d="
  M 296.21 154.25
  Q 298.78 153.21 298.94 150.94
  Q 299.08 148.95 299.03 139.00
  Q 299.01 135.35 295.57 134.52
  A 1.69 1.66 -53.2 0 0 294.32 134.71
  Q 288.09 138.44 282.76 139.09
  Q 270.57 140.57 258.42 138.82
  Q 258.10 138.77 256.78 138.34
  Q 255.17 137.83 255.22 139.75
  A 1.37 1.09 70.4 0 1 254.92 140.63
  Q 252.02 143.82 248.25 144.50
  Q 229.58 147.87 209.50 144.83
  A 1.44 1.40 -54.5 0 0 208.57 145.00
  Q 203.20 147.99 195.50 148.50
  Q 178.11 149.65 164.75 148.00
  Q 158.49 147.23 154.62 143.84
  A 1.10 1.06 61.1 0 0 153.75 143.57
  Q 133.54 146.39 113.25 141.25
  Q 111.31 140.76 110.10 139.61
  A 1.14 0.97 60.6 0 0 109.26 139.30
  Q 101.14 140.13 92.99 139.70
  Q 84.84 139.27 75.65 134.75
  A 1.80 1.78 48.4 0 0 74.28 134.66
  Q 71.11 135.75 71.28 139.51
  Q 71.50 144.37 71.50 149.25
  Q 71.50 153.40 74.75 154.29"
/>
<path stroke="#323938" vector-effect="non-scaling-stroke" d="
  M 296.21 154.25
  L 284.50 154.29"
/>
<path stroke="#828281" vector-effect="non-scaling-stroke" d="
  M 284.50 154.29
  Q 186.25 153.07 88.00 154.29"
/>
<path stroke="#5d5e59" vector-effect="non-scaling-stroke" d="
  M 88.00 154.29
  L 74.75 154.29"
/>
<path stroke="#323938" vector-effect="non-scaling-stroke" d="
  M 296.29 154.50
  L 282.50 154.71"
/>
<path stroke="#5d5e59" vector-effect="non-scaling-stroke" d="
  M 87.75 154.71
  L 74.71 154.50"
/>
<path stroke="#b0b6b6" vector-effect="non-scaling-stroke" d="
  M 284.50 154.29
  L 282.50 154.71"
/>
<path stroke="#828281" vector-effect="non-scaling-stroke" d="
  M 282.50 154.71
  Q 185.13 155.81 87.75 154.71"
/>
<path stroke="#dadbd7" vector-effect="non-scaling-stroke" d="
  M 87.75 154.71
  L 88.00 154.29"
/>
<path stroke="#040503" vector-effect="non-scaling-stroke" d="
  M 314.50 176.46
  L 302.50 176.71"
/>
<path stroke="#828281" vector-effect="non-scaling-stroke" d="
  M 302.50 176.71
  L 302.50 176.50
  A 0.27 0.19 -0.0 0 0 302.23 176.31
  Q 184.08 174.54 65.93 176.31
  A 0.19 0.18 12.3 0 0 65.76 176.41
  L 65.71 176.50"
/>
<path stroke="#323938" vector-effect="non-scaling-stroke" d="
  M 65.71 176.50
  L 55.75 176.04"
/>
<path stroke="#323938" vector-effect="non-scaling-stroke" d="
  M 65.75 176.71
  L 54.50 176.46"
/>
<path stroke="#828281" vector-effect="non-scaling-stroke" d="
  M 302.50 176.71
  Q 184.13 177.72 65.75 176.71"
/>
<path stroke="#b0b6b6" vector-effect="non-scaling-stroke" d="
  M 65.75 176.71
  L 65.71 176.50"
/>
<path stroke="#323938" vector-effect="non-scaling-stroke" d="
  M 172.54 56.25
  Q 171.81 57.40 172.75 58.29"
/>
<path stroke="#828281" vector-effect="non-scaling-stroke" d="
  M 172.75 58.29
  Q 174.05 64.09 172.34 69.71
  Q 172.25 69.99 171.77 70.47
  L 170.34 71.90
  A 1.35 0.39 89.3 0 0 170.09 72.82
  Q 170.04 73.67 169.19 74.19
  Q 165.92 76.18 167.81 78.99
  Q 168.45 79.96 169.70 80.36
  Q 170.85 80.72 172.06 80.88
  A 0.79 0.73 -3.1 0 1 172.70 81.41
  Q 176.01 92.73 173.32 104.27
  Q 171.85 110.56 169.84 116.71
  A 0.91 0.87 1.4 0 1 169.20 117.29
  Q 164.17 118.48 167.46 122.95
  A 1.23 1.22 43.6 0 1 167.50 124.35
  Q 165.54 127.30 162.52 128.84
  Q 160.29 129.97 159.74 131.06
  Q 158.56 133.43 160.43 135.86
  A 0.92 0.75 41.1 0 1 160.58 136.72
  L 159.40 139.38
  Q 158.59 141.21 160.42 141.75
  Q 165.66 143.30 170.76 143.78
  Q 174.11 144.10 181.25 144.28
  Q 190.29 144.50 199.25 142.96"
/>
<path stroke="#5d5e59" vector-effect="non-scaling-stroke" d="
  M 199.25 142.96
  Q 203.22 141.98 198.75 142.71"
/>
<path stroke="#828281" vector-effect="non-scaling-stroke" d="
  M 198.75 142.71
  L 195.14 143.27
  A 0.92 0.91 4.6 0 1 194.13 142.09
  Q 194.63 140.54 193.96 138.95
  A 0.79 0.73 -10.7 0 0 193.25 138.50
  Q 178.34 138.51 163.56 136.51
  Q 163.06 136.44 163.57 136.46
  Q 178.03 137.17 192.44 135.74
  A 1.20 1.01 11.0 0 0 193.24 135.30
  Q 194.51 133.52 193.06 131.69
  Q 190.45 128.38 189.44 124.92
  A 0.72 0.69 83.4 0 0 188.81 124.40
  L 171.54 123.31
  Q 168.66 123.13 171.54 122.94
  L 189.45 121.72
  A 0.65 0.63 3.3 0 0 190.05 121.20
  Q 190.63 118.09 187.58 118.18
  Q 185.99 118.22 185.92 118.22
  Q 179.72 117.99 173.52 117.76
  Q 173.23 117.75 173.01 117.63
  Q 172.00 117.07 173.87 117.22
  Q 174.28 117.25 174.61 117.23
  Q 179.08 116.93 184.29 116.72
  A 0.92 0.89 86.9 0 0 185.14 115.74
  L 184.31 101.25
  Q 184.18 98.93 184.81 101.17
  Q 185.81 104.74 186.71 108.31
  Q 186.85 108.89 187.07 108.74
  A 0.59 0.37 71.6 0 0 187.20 108.22
  Q 185.03 96.39 185.75 89.75
  Q 186.17 85.84 187.53 82.74
  A 0.66 0.66 14.3 0 0 186.98 81.82
  Q 180.63 81.25 175.00 81.00
  Q 174.69 80.99 174.59 80.86
  Q 174.34 80.57 174.87 80.55
  Q 180.47 80.29 186.07 79.86
  Q 188.62 79.67 188.89 79.48
  Q 190.04 78.72 189.49 75.91
  A 1.06 1.03 85.6 0 0 188.53 75.06
  L 171.72 74.20
  Q 171.07 74.16 171.54 73.86
  Q 171.71 73.75 172.00 73.75
  Q 178.32 73.66 187.70 72.97
  A 0.51 0.47 -5.6 0 0 188.17 72.44
  Q 188.00 71.23 186.74 71.21
  Q 185.83 71.21 185.76 71.20
  Q 180.33 70.64 174.88 70.75
  Q 174.72 70.75 174.64 70.70
  Q 174.45 70.57 174.68 70.40
  Q 174.79 70.32 174.97 70.30
  Q 179.86 69.81 185.01 69.48
  A 0.92 0.91 -9.1 0 0 185.84 68.34
  Q 183.74 60.25 187.91 53.73
  A 0.33 0.32 -68.6 0 0 187.70 53.23
  Q 182.91 52.45 178.07 52.21
  Q 173.96 52.01 178.25 51.80
  Q 181.88 51.62 185.52 51.25
  Q 186.41 51.16 185.85 50.46
  Q 184.14 48.29 181.30 47.98
  Q 180.95 47.94 181.31 47.86
  Q 183.38 47.39 183.17 45.01
  Q 182.89 41.99 184.54 44.25"
/>
<path stroke="#5d5e59" vector-effect="non-scaling-stroke" d="
  M 184.54 44.25
  L 184.44 46.96
  Q 184.43 47.37 184.69 47.10
  Q 186.01 45.76 185.04 44.00"
/>
<path stroke="#828281" vector-effect="non-scaling-stroke" d="
  M 185.04 44.00
  Q 184.51 42.50 183.25 42.50
  Q 176.71 42.52 179.97 47.58
  A 0.36 0.35 -23.0 0 1 179.75 48.11
  Q 177.38 48.69 175.69 50.41
  Q 175.65 50.45 175.05 51.29
  Q 174.22 52.47 172.17 51.91
  Q 170.19 51.37 171.06 53.17
  L 172.54 56.25"
/>
<path stroke="#dadbd7" vector-effect="non-scaling-stroke" d="
  M 185.04 44.00
  Q 184.89 44.35 184.54 44.25"
/>
<path stroke="#dadbd7" vector-effect="non-scaling-stroke" d="
  M 198.75 142.71
  Q 199.16 142.69 199.25 142.96"
/>
<path stroke="#b0b6b6" vector-effect="non-scaling-stroke" d="
  M 172.75 58.29
  Q 173.15 58.20 173.46 58.50"
/>
<path stroke="#828281" vector-effect="non-scaling-stroke" d="
  M 173.46 58.50
  Q 174.12 62.59 174.24 66.73
  Q 174.25 67.02 174.37 67.24
  Q 174.93 68.25 174.78 66.38
  Q 174.75 66.00 174.79 65.63
  Q 175.15 61.71 173.96 58.00"
/>
<path stroke="#b0b6b6" vector-effect="non-scaling-stroke" d="
  M 173.96 58.00
  Q 173.67 56.78 172.54 56.25"
/>
<path stroke="#323938" vector-effect="non-scaling-stroke" d="
  M 173.96 58.00
  Q 173.42 57.92 173.46 58.50"
/>
<path stroke="#5d5e59" vector-effect="non-scaling-stroke" d="
  M 192.04 58.00
  Q 190.88 62.37 192.12 66.72
  Q 192.54 68.21 192.72 66.96
  Q 192.75 66.76 192.72 66.55
  Q 192.01 62.27 192.71 58.00"
/>
<path stroke="#828281" vector-effect="non-scaling-stroke" d="
  M 192.71 58.00
  L 193.91 53.52
  A 0.36 0.22 -77.9 0 0 193.76 53.09
  Q 193.58 53.07 193.44 53.44
  Q 192.27 56.55 192.04 58.00"
/>
<path stroke="#dadbd7" vector-effect="non-scaling-stroke" d="
  M 192.71 58.00
  L 192.04 58.00"
/>
<path stroke="#323938" vector-effect="non-scaling-stroke" d="
  M 242.79 108.25
  Q 245.44 118.88 243.29 108.00"
/>
<path stroke="#828281" vector-effect="non-scaling-stroke" d="
  M 243.29 108.00
  Q 241.60 97.35 246.37 87.84
  Q 249.47 81.66 250.00 74.75
  Q 250.46 68.72 247.44 65.06
  Q 242.18 58.71 232.80 57.14
  A 1.03 1.00 27.4 0 0 231.94 57.40
  Q 230.18 59.06 229.45 60.81
  Q 228.81 62.35 227.25 62.96
  Q 222.36 64.86 217.67 65.34
  Q 213.04 65.81 211.98 66.39
  Q 208.75 68.17 209.87 72.77
  A 0.73 0.65 83.4 0 0 210.49 73.32
  L 215.76 73.53
  A 1.65 0.87 -11.4 0 1 216.65 73.79
  Q 219.12 75.67 215.93 76.56
  Q 215.87 76.58 214.94 76.75
  Q 212.61 77.18 214.04 79.77
  A 1.07 1.07 60.9 0 0 215.50 80.19
  Q 221.47 76.80 227.72 78.12
  Q 233.65 79.38 238.76 76.32
  Q 239.20 76.06 238.92 76.47
  Q 235.88 80.95 229.95 80.94
  Q 228.18 80.93 229.79 81.65
  Q 234.17 83.61 226.89 83.22
  A 0.85 0.84 16.6 0 0 226.11 83.64
  Q 222.84 89.31 218.41 93.66
  Q 213.31 98.68 211.00 102.50
  Q 209.04 105.75 209.75 109.00
  Q 210.86 114.05 213.51 118.51
  Q 214.59 120.34 212.78 121.43
  Q 209.37 123.50 207.24 127.30
  A 0.98 0.93 47.1 0 0 207.23 128.19
  Q 208.93 131.66 207.83 135.84
  Q 207.06 138.78 210.03 139.42
  Q 227.18 143.13 245.19 139.78
  Q 245.74 139.68 245.20 139.63
  Q 243.70 139.48 242.24 139.86
  A 1.29 0.77 -25.9 0 1 241.31 139.78
  Q 240.28 139.07 240.94 137.20
  A 1.10 1.10 9.3 0 0 239.89 135.74
  Q 224.59 135.96 210.05 134.01
  Q 209.56 133.94 210.07 133.95
  Q 225.15 134.34 240.18 132.98
  A 0.62 0.60 0.5 0 0 240.75 132.44
  Q 241.42 126.52 237.52 122.18
  A 1.24 1.09 -16.2 0 0 236.69 121.79
  L 217.32 120.73
  Q 216.80 120.70 217.32 120.67
  L 235.43 119.72
  A 0.56 0.47 -4.5 0 0 235.97 119.19
  L 235.65 116.48
  A 0.72 0.57 -0.5 0 0 235.00 115.97
  Q 225.01 115.30 215.00 114.90
  Q 214.73 114.89 214.74 114.73
  A 0.27 0.17 2.6 0 1 215.01 114.57
  Q 223.72 114.64 232.41 114.06
  Q 232.77 114.03 234.07 114.13
  Q 235.77 114.25 235.40 112.72
  Q 235.29 112.27 235.31 111.76
  Q 235.33 111.23 235.16 110.75
  A 0.96 0.78 -3.7 0 0 234.44 110.24
  Q 229.90 109.54 233.94 109.00
  A 1.39 1.04 9.1 0 0 234.77 108.56
  Q 236.19 106.67 232.82 105.01
  Q 231.68 104.45 232.95 104.48
  Q 235.72 104.56 234.77 101.84
  A 0.93 0.92 -3.4 0 0 234.09 101.24
  Q 231.40 100.70 234.69 99.61
  A 1.23 1.23 -87.0 0 0 235.40 98.97
  Q 236.48 96.65 234.26 96.39
  Q 232.25 96.15 234.45 95.76
  Q 237.08 95.29 237.19 92.82
  A 0.75 0.70 13.1 0 0 236.72 92.13
  Q 234.28 91.12 237.04 91.01
  Q 237.55 90.99 237.89 90.76
  Q 239.20 89.86 239.59 88.30
  A 0.55 0.50 14.6 0 0 239.19 87.68
  Q 236.18 86.86 239.55 86.56
  A 1.78 1.78 18.5 0 0 240.72 85.98
  Q 243.23 83.23 241.00 82.59
  Q 239.96 82.29 241.32 82.22
  Q 244.28 82.06 244.12 79.43
  A 0.68 0.62 4.4 0 0 243.57 78.85
  Q 240.56 78.26 243.43 77.64
  Q 245.82 77.11 245.12 75.03
  A 1.03 0.88 1.4 0 0 244.45 74.43
  Q 240.69 73.42 244.50 73.04
  A 0.81 0.71 4.4 0 0 245.18 72.53
  Q 245.80 70.42 242.86 69.46
  Q 242.04 69.20 242.88 69.02
  Q 245.06 68.58 243.81 66.94
  Q 242.74 65.52 241.94 64.99
  A 1.42 1.19 13.5 0 1 241.40 64.26
  Q 240.88 62.23 238.47 61.40
  Q 237.81 61.17 237.31 60.68
  Q 235.29 58.67 236.55 59.08
  Q 252.05 64.15 247.94 80.44
  Q 247.32 82.88 245.17 87.92
  Q 243.15 92.63 242.66 95.44
  Q 241.55 101.79 242.79 108.25"
/>
<path stroke="#b0b6b6" vector-effect="non-scaling-stroke" d="
  M 243.29 108.00
  Q 243.14 108.35 242.79 108.25"
/>
<path stroke="#323938" vector-effect="non-scaling-stroke" d="
  M 130.00 77.71
  L 130.00 77.29"
/>
<path stroke="#828281" vector-effect="non-scaling-stroke" d="
  M 130.00 77.29
  Q 138.20 76.40 146.45 76.26
  Q 147.06 76.25 147.51 76.03
  Q 149.18 75.22 147.31 74.65
  Q 146.84 74.50 146.17 74.49
  Q 137.70 74.28 129.25 73.71"
/>
<path stroke="#323938" vector-effect="non-scaling-stroke" d="
  M 129.25 73.71
  L 128.75 73.29"
/>
<path stroke="#828281" vector-effect="non-scaling-stroke" d="
  M 128.75 73.29
  L 146.80 72.34
  A 0.61 0.52 -2.2 0 0 147.38 71.81
  L 147.28 65.69
  A 0.64 0.54 83.9 0 1 147.70 65.07
  Q 149.73 64.60 151.50 64.73
  Q 154.84 64.97 154.29 68.50"
/>
<path stroke="#323938" vector-effect="non-scaling-stroke" d="
  M 154.29 68.50
  Q 154.90 75.67 154.79 68.25"
/>
<path stroke="#828281" vector-effect="non-scaling-stroke" d="
  M 154.79 68.25
  Q 155.09 65.76 153.50 64.69
  Q 152.56 64.05 150.25 64.08
  Q 137.65 64.22 125.33 64.49
  A 1.67 1.63 89.5 0 0 123.74 66.15
  L 123.70 72.93
  A 1.56 1.08 -33.2 0 1 123.35 73.80
  Q 121.94 75.53 124.74 76.60
  A 1.85 1.84 8.5 0 1 125.91 78.17
  Q 126.69 87.99 126.59 96.75
  Q 126.51 103.93 124.40 110.78
  A 1.97 1.54 -18.2 0 1 123.87 111.57
  Q 121.43 113.70 121.75 116.75
  Q 122.05 119.64 120.73 121.44
  Q 120.71 121.47 117.93 123.64
  Q 115.26 125.72 115.36 129.31
  Q 115.43 132.02 115.43 132.20
  Q 115.41 134.09 115.72 135.95
  A 0.80 0.79 2.5 0 0 116.30 136.57
  Q 135.72 141.74 155.56 138.11
  Q 155.82 138.06 156.04 137.93
  Q 157.12 137.29 155.04 137.90
  Q 152.43 138.67 153.12 135.12
  A 0.89 0.88 5.3 0 0 152.24 134.07
  Q 136.63 134.28 120.44 132.49
  Q 119.94 132.44 120.44 132.45
  Q 136.52 132.74 152.51 131.05
  A 0.66 0.64 1.6 0 0 153.09 130.52
  Q 153.80 126.37 150.62 123.88
  Q 150.19 123.54 149.85 123.14
  Q 149.51 122.72 149.11 122.34
  A 1.37 1.19 -18.4 0 0 148.24 121.98
  Q 136.74 121.47 125.24 120.97
  Q 124.78 120.95 124.62 120.77
  Q 124.24 120.34 125.03 120.32
  L 148.06 119.60
  A 0.62 0.62 3.4 0 0 148.65 119.08
  Q 149.11 116.22 148.12 113.53
  A 0.78 0.76 -8.0 0 0 147.44 113.03
  Q 137.61 112.43 127.77 112.01
  Q 127.48 112.00 127.24 111.92
  Q 125.53 111.39 128.00 111.36
  Q 134.88 111.26 142.33 110.98
  A 0.52 0.51 85.4 0 0 142.82 110.40
  Q 141.68 100.35 142.71 90.94
  Q 142.78 90.27 142.83 90.77
  Q 143.59 97.61 145.23 104.30
  Q 145.42 105.10 145.33 104.34
  Q 143.71 91.61 146.33 79.05
  A 0.44 0.42 -82.6 0 0 145.94 78.52
  L 130.00 77.71"
/>
<path stroke="#b0b6b6" vector-effect="non-scaling-stroke" d="
  M 154.79 68.25
  Q 154.64 68.60 154.29 68.50"
/>
<path stroke="#b0b6b6" vector-effect="non-scaling-stroke" d="
  M 128.75 73.29
  Q 122.58 73.61 129.25 73.71"
/>
<path stroke="#b0b6b6" vector-effect="non-scaling-stroke" d="
  M 130.00 77.29
  Q 125.58 77.57 130.00 77.71"
/>
<path stroke="#323938" vector-effect="non-scaling-stroke" d="
  M 99.79 108.00
  Q 100.90 107.71 100.46 106.50"
/>
<path stroke="#828281" vector-effect="non-scaling-stroke" d="
  M 100.46 106.50
  L 100.64 101.82
  A 0.68 0.60 -81.7 0 0 100.21 101.16
  Q 98.65 100.69 97.00 100.77
  Q 93.69 100.93 95.63 100.35
  Q 95.97 100.25 96.39 100.24
  Q 98.68 100.16 100.95 99.77
  A 0.98 0.88 6.3 0 0 101.67 99.25
  Q 102.54 97.33 101.00 95.96"
/>
<path stroke="#323938" vector-effect="non-scaling-stroke" d="
  M 101.00 95.96
  Q 101.14 95.02 100.29 94.75"
/>
<path stroke="#5d5e59" vector-effect="non-scaling-stroke" d="
  M 100.29 94.75
  Q 99.30 94.00 98.00 94.04"
/>
<path stroke="#828281" vector-effect="non-scaling-stroke" d="
  M 98.00 94.04
  L 95.55 93.65
  Q 94.92 93.55 95.56 93.49
  L 100.98 93.02
  A 2.68 2.38 9.3 0 0 103.05 91.71
  Q 106.04 85.93 103.51 78.56
  Q 103.34 78.07 103.82 78.27
  Q 107.79 79.88 108.69 82.77
  Q 110.00 86.93 107.96 90.73
  Q 106.47 93.51 108.44 91.19
  Q 110.08 89.26 110.18 85.50
  Q 110.39 78.12 103.33 76.60
  Q 99.59 75.79 96.00 76.51
  Q 91.94 77.32 89.87 79.94
  Q 87.06 83.51 88.99 88.79
  Q 90.08 91.79 92.94 93.51
  Q 94.62 94.53 92.66 94.97
  L 89.25 95.75
  Q 86.46 96.39 87.81 98.19
  Q 89.38 100.27 92.00 100.48
  A 0.87 0.79 -8.2 0 1 92.71 100.96
  Q 95.73 107.76 91.02 113.07
  A 1.40 1.10 12.4 0 1 90.19 113.47
  Q 86.74 113.86 87.56 118.07
  Q 88.10 120.81 85.45 121.68
  Q 80.37 123.36 81.50 129.25
  Q 82.12 132.50 83.00 132.75
  Q 96.76 136.67 110.87 134.10
  Q 111.07 134.06 111.22 133.94
  Q 111.92 133.39 110.79 133.53
  Q 110.59 133.56 110.35 133.66
  Q 107.42 134.98 107.53 131.94
  A 0.49 0.47 -88.2 0 0 107.07 131.43
  Q 97.21 131.32 87.46 130.06
  Q 84.42 129.67 87.48 129.75
  Q 97.15 129.99 107.07 128.97
  A 0.70 0.69 1.6 0 0 107.68 128.40
  Q 108.33 124.75 106.42 122.84
  Q 105.15 121.57 101.69 121.32
  Q 96.24 120.92 90.80 120.48
  Q 90.29 120.44 90.81 120.41
  L 103.69 119.71
  A 0.69 0.65 4.4 0 0 104.31 119.21
  Q 104.81 117.00 104.00 114.90
  A 0.81 0.80 81.9 0 0 103.31 114.38
  L 93.57 113.70
  Q 93.09 113.67 93.55 113.55
  Q 95.65 112.99 98.32 113.32
  A 1.55 1.36 -87.3 0 0 99.84 111.74
  L 99.79 108.00"
/>
<path stroke="#dadbd7" vector-effect="non-scaling-stroke" d="
  M 98.00 94.04
  L 97.75 94.96"
/>
<path stroke="#b0b6b6" vector-effect="non-scaling-stroke" d="
  M 97.75 94.96
  Q 95.62 94.80 95.85 95.32
  A 1.05 0.54 -2.4 0 0 96.70 95.71
  L 101.00 95.96"
/>
<path stroke="#b0b6b6" vector-effect="non-scaling-stroke" d="
  M 100.46 106.50
  Q 98.78 106.55 99.79 108.00"
/>
<path stroke="#8b918e" vector-effect="non-scaling-stroke" d="
  M 100.29 94.75
  Q 99.06 95.22 97.75 94.96"
/>
<path stroke="#323938" vector-effect="non-scaling-stroke" d="
  M 272.71 95.75
  Q 272.93 95.03 272.29 94.75"
/>
<path stroke="#5d5e59" vector-effect="non-scaling-stroke" d="
  M 272.29 94.75
  Q 271.27 94.07 270.00 94.04"
/>
<path stroke="#828281" vector-effect="non-scaling-stroke" d="
  M 270.00 94.04
  Q 263.99 93.40 272.96 93.19
  A 1.79 1.78 16.3 0 0 274.37 92.42
  Q 278.72 86.09 275.40 78.89
  Q 275.19 78.42 275.69 78.52
  Q 280.27 79.41 280.98 84.25
  Q 281.57 88.19 279.49 91.47
  Q 279.02 92.20 279.67 91.89
  Q 279.81 91.82 279.91 91.69
  Q 283.45 87.08 281.45 81.52
  Q 280.41 78.62 277.56 77.44
  Q 272.53 75.35 267.16 76.55
  Q 259.89 78.16 260.21 85.75
  Q 260.43 90.68 264.69 93.31
  Q 265.35 93.72 265.29 94.46
  A 0.65 0.55 -1.5 0 1 264.70 94.98
  Q 262.38 95.20 261.25 95.75
  Q 258.74 96.98 259.95 98.59
  Q 260.51 99.33 261.96 99.84
  Q 263.09 100.23 264.22 100.64
  A 1.01 1.01 -88.9 0 1 264.84 101.29
  Q 265.85 104.55 265.52 108.00
  Q 265.04 112.95 260.42 114.08
  A 0.82 0.62 -6.9 0 0 259.81 114.67
  L 259.45 119.26
  A 1.56 0.52 87.0 0 1 259.20 120.16
  Q 257.76 121.99 255.17 122.96
  Q 253.10 123.74 253.24 126.46
  L 253.48 130.80
  A 2.15 1.77 -85.4 0 0 254.79 132.69
  Q 270.89 137.28 286.87 133.11
  Q 287.00 133.08 287.27 133.07
  Q 287.55 133.06 287.66 132.94
  Q 288.07 132.46 287.30 132.67
  Q 284.40 133.44 281.40 133.72
  Q 281.26 133.73 280.62 133.85
  Q 279.31 134.11 279.80 132.33
  A 0.71 0.70 7.9 0 0 279.12 131.44
  Q 268.19 131.35 257.81 129.77
  Q 257.31 129.69 257.81 129.70
  Q 268.40 130.02 278.93 128.99
  A 0.75 0.73 4.4 0 0 279.58 128.45
  Q 280.44 125.11 278.54 123.01
  Q 277.20 121.55 273.97 121.30
  Q 266.39 120.70 263.25 120.75
  Q 262.68 120.76 262.39 120.65
  Q 261.54 120.34 262.57 120.29
  L 275.51 119.72
  A 0.63 0.62 -86.6 0 0 276.10 119.19
  Q 276.51 116.62 275.93 114.96
  A 0.84 0.77 -4.1 0 0 275.26 114.43
  Q 270.28 113.75 265.25 113.59
  Q 264.39 113.57 265.58 113.43
  Q 267.65 113.20 270.86 113.28
  A 0.63 0.63 0.4 0 0 271.50 112.65
  Q 271.50 110.63 271.50 109.05
  Q 271.50 107.86 272.24 105.62
  Q 272.92 103.55 272.37 101.39
  A 0.94 0.94 82.1 0 0 271.45 100.69
  Q 264.87 100.81 268.26 100.31
  Q 270.12 100.04 272.23 100.00
  A 1.41 1.39 -82.3 0 0 273.54 98.99
  Q 274.29 96.37 272.71 95.75"
/>
<path stroke="#dadbd7" vector-effect="non-scaling-stroke" d="
  M 270.00 94.04
  Q 270.08 94.57 269.75 94.96"
/>
<path stroke="#b0b6b6" vector-effect="non-scaling-stroke" d="
  M 269.75 94.96
  L 268.04 95.14
  Q 267.17 95.23 268.04 95.44
  Q 270.34 96.01 272.71 95.75"
/>
<path stroke="#8b918e" vector-effect="non-scaling-stroke" d="
  M 272.29 94.75
  Q 271.06 95.22 269.75 94.96"
/>
<path stroke="#5d5e59" vector-effect="non-scaling-stroke" d="
  M 153.04 104.50
  L 154.05 108.03
  A 0.68 0.60 2.8 0 0 154.48 108.45
  Q 154.95 108.60 154.66 107.90
  Q 153.96 106.23 153.46 104.50"
/>
<path stroke="#828281" vector-effect="non-scaling-stroke" d="
  M 153.46 104.50
  Q 152.60 98.45 152.89 92.37
  Q 152.96 90.76 152.79 88.65
  Q 152.65 86.79 152.74 84.91
  Q 152.75 84.73 152.68 84.63
  Q 152.51 84.34 152.33 84.61
  Q 152.25 84.72 152.25 84.91
  Q 152.13 90.71 152.05 96.50
  Q 151.98 100.58 153.04 104.50"
/>
<path stroke="#dadbd7" vector-effect="non-scaling-stroke" d="
  M 153.46 104.50
  L 153.04 104.50"
/>
<path stroke="#828281" vector-effect="non-scaling-stroke" d="
  M 190.96 99.75
  Q 191.61 105.40 193.54 110.75"
/>
<path stroke="#323938" vector-effect="non-scaling-stroke" d="
  M 193.54 110.75
  Q 196.38 118.24 193.96 110.75"
/>
<path stroke="#828281" vector-effect="non-scaling-stroke" d="
  M 193.96 110.75
  L 191.71 99.75"
/>
<path stroke="#5d5e59" vector-effect="non-scaling-stroke" d="
  M 191.71 99.75
  L 191.72 85.75
  Q 191.72 85.34 191.62 85.73
  Q 189.81 92.66 190.96 99.75"
/>
<path stroke="#dadbd7" vector-effect="non-scaling-stroke" d="
  M 191.71 99.75
  Q 191.40 98.44 190.96 99.75"
/>
<path stroke="#b0b6b6" vector-effect="non-scaling-stroke" d="
  M 193.96 110.75
  L 193.54 110.75"
/>
<path stroke="#828281" vector-effect="non-scaling-stroke" d="
  M 277.81 104.08
  Q 276.59 108.06 279.02 111.34
  A 0.74 0.62 72.1 0 0 279.46 111.62
  Q 280.07 111.71 279.46 111.09
  Q 279.30 110.92 279.23 110.75
  Q 277.53 107.11 278.61 103.23
  A 0.43 0.34 -84.5 0 0 278.26 102.68
  Q 277.92 102.74 277.91 103.27
  Q 277.90 103.80 277.81 104.08"
/>
<path stroke="#5d5e59" vector-effect="non-scaling-stroke" d="
  M 106.37 103.27
  Q 104.63 107.07 106.56 110.69
  Q 106.93 111.38 107.44 111.59
  Q 108.01 111.83 107.67 111.25
  Q 105.62 107.76 106.53 103.70
  Q 106.89 102.12 106.37 103.27"
/>
<path stroke="#5d5e59" vector-effect="non-scaling-stroke" d="
  M 113.53 121.25
  Q 110.76 119.72 113.29 121.70
  Q 113.44 121.81 113.63 121.84
  Q 114.96 122.04 113.53 121.25"
/>
<path stroke="#828281" vector-effect="non-scaling-stroke" d="
  M 160.01 122.30
  Q 159.71 121.95 159.34 121.66
  Q 157.56 120.24 159.03 122.23
  Q 159.48 122.85 160.11 123.30
  Q 162.04 124.67 162.57 124.63
  Q 163.36 124.57 162.37 123.93
  L 160.76 122.90
  Q 160.24 122.56 160.01 122.30"
/>
<path stroke="#828281" vector-effect="non-scaling-stroke" d="
  M 290.04 128.56
  Q 290.99 122.48 285.24 121.34
  Q 284.59 121.21 285.13 121.57
  L 288.62 123.91
  A 1.70 1.37 19.4 0 1 289.36 125.11
  Q 289.63 131.14 290.04 128.56"
/>
<path stroke="#828281" vector-effect="non-scaling-stroke" d="
  M 250.19 126.04
  Q 248.39 123.26 247.01 122.23
  Q 246.32 121.72 246.62 122.42
  Q 246.68 122.55 246.80 122.66
  Q 248.71 124.38 249.75 126.63
  Q 250.50 128.26 250.50 130.99
  Q 250.51 133.25 250.52 135.50
  Q 250.53 136.66 251.02 136.07
  A 1.20 0.86 72.2 0 0 251.25 135.36
  L 251.25 129.64
  Q 251.25 127.68 250.19 126.04"
/>
<path stroke="#828281" vector-effect="non-scaling-stroke" d="
  M 204.88 130.78
  Q 205.54 132.56 205.17 134.45
  Q 205.08 134.93 205.31 134.50
  Q 207.33 130.58 203.69 128.81
  Q 199.91 126.98 198.30 124.96
  A 0.55 0.40 69.8 0 0 198.00 124.76
  Q 197.68 124.70 197.95 125.09
  Q 200.38 128.47 204.22 130.12
  A 1.27 1.10 4.1 0 1 204.88 130.78"
/>
<path stroke="#828281" vector-effect="non-scaling-stroke" d="
  M 181.69 58.69
  Q 179.97 63.27 182.69 67.32
  Q 183.37 68.33 183.44 67.10
  L 184.01 55.94
  Q 184.04 55.41 183.64 55.71
  Q 182.49 56.56 181.69 58.69"
/>
<path stroke="#828281" vector-effect="non-scaling-stroke" d="
  M 175.92 96.19
  Q 175.53 103.58 173.75 110.76
  Q 173.34 112.41 174.09 110.88
  Q 179.73 99.37 176.06 86.71
  A 0.55 0.38 87.9 0 0 175.81 86.38
  Q 175.53 86.25 175.69 86.81
  Q 176.30 88.99 175.92 96.19"
/>
<path stroke="#828281" vector-effect="non-scaling-stroke" d="
  M 181.44 130.98
  L 164.50 130.32
  A 0.56 0.43 20.7 0 0 164.14 130.43
  Q 163.92 130.62 164.26 130.71
  Q 173.06 133.16 181.49 131.67
  Q 184.67 131.10 181.44 130.98"
/>
<path stroke="#828281" vector-effect="non-scaling-stroke" d="
  M 230.3975 62.7213
  A 2.15 0.40 122.1 0 0 231.8788 61.1126
  A 2.15 0.40 122.1 0 0 232.6825 59.0787
  A 2.15 0.40 122.1 0 0 231.2012 60.6874
  A 2.15 0.40 122.1 0 0 230.3975 62.7213"
/>
<path stroke="#828281" vector-effect="non-scaling-stroke" d="
  M 239.59 63.35
  Q 236.98 61.87 234.66 62.84
  Q 232.68 63.67 234.83 63.74
  Q 240.47 63.90 237.85 67.78
  Q 237.54 68.24 238.04 68.06
  Q 239.36 67.55 240.30 65.64
  A 1.74 1.73 27.9 0 0 239.59 63.35"
/>
<path stroke="#828281" vector-effect="non-scaling-stroke" d="
  M 227.48 75.81
  Q 224.37 74.67 221.34 76.13
  Q 220.09 76.73 221.41 76.53
  Q 224.76 76.02 228.09 76.66
  A 1.12 0.88 29.6 0 0 228.88 76.54
  Q 229.64 76.05 228.17 75.96
  Q 227.82 75.93 227.48 75.81"
/>
<path stroke="#828281" vector-effect="non-scaling-stroke" d="
  M 232.69 86.92
  Q 230.16 92.16 227.06 97.06
  Q 223.43 102.82 225.56 110.71
  Q 225.69 111.20 225.73 110.69
  Q 226.04 107.22 226.25 103.75
  Q 226.42 100.96 229.05 96.85
  Q 232.12 92.07 233.13 87.07
  Q 233.50 85.26 232.69 86.92"
/>
<path stroke="#828281" vector-effect="non-scaling-stroke" d="
  M 215.69 110.59
  Q 215.86 109.81 215.75 109.00
  Q 215.20 104.78 217.96 101.70
  Q 220.85 98.48 223.76 95.26
  Q 227.01 91.67 228.31 87.04
  Q 228.45 86.55 228.15 86.97
  Q 223.73 93.22 218.49 98.80
  Q 215.79 101.69 215.13 103.97
  Q 213.97 108.00 215.34 112.27
  Q 215.53 112.87 215.72 112.31
  Q 215.85 111.92 215.75 111.52
  Q 215.61 110.96 215.69 110.59"
/>
<path stroke="#828281" vector-effect="non-scaling-stroke" d="
  M 230.4600 118.5721
  A 0.31 0.31 0.0 0 0 230.1505 118.2615
  L 216.9306 118.2385
  A 0.31 0.31 0.0 0 0 216.6200 118.5479
  L 216.6200 118.5679
  A 0.31 0.31 0.0 0 0 216.9295 118.8785
  L 230.1494 118.9015
  A 0.31 0.31 0.0 0 0 230.4600 118.5921
  L 230.4600 118.5721"
/>
<path stroke="#828281" vector-effect="non-scaling-stroke" d="
  M 231.56 129.00
  Q 220.74 128.58 209.92 128.32
  Q 209.80 128.31 209.72 128.36
  Q 209.62 128.41 209.53 128.48
  Q 209.26 128.68 209.62 128.76
  Q 221.61 131.52 233.78 129.73
  Q 235.53 129.47 233.97 129.23
  Q 232.78 129.05 231.56 129.00"
/>
<path stroke="#828281" vector-effect="non-scaling-stroke" d="
  M 144.89 66.78
  Q 143.86 69.17 145.20 71.10
  Q 145.50 71.54 145.66 71.02
  Q 146.21 69.19 145.92 67.26
  Q 145.60 65.15 144.89 66.78"
/>
<path stroke="#828281" vector-effect="non-scaling-stroke" d="
  M 125.5263 71.2399
  A 2.51 0.50 89.4 0 0 126.0000 68.7248
  A 2.51 0.50 89.4 0 0 125.4737 66.2201
  A 2.51 0.50 89.4 0 0 125.0000 68.7352
  A 2.51 0.50 89.4 0 0 125.5263 71.2399"
/>
<path stroke="#828281" vector-effect="non-scaling-stroke" d="
  M 128.63 91.43
  Q 128.29 97.71 128.25 103.94
  Q 128.24 105.77 128.75 104.01
  Q 131.52 94.44 129.29 84.92
  Q 128.71 82.46 128.75 84.99
  Q 128.80 88.22 128.63 91.43"
/>
<path stroke="#828281" vector-effect="non-scaling-stroke" d="
  M 142.79 128.33
  Q 130.68 127.32 120.07 127.50
  Q 117.12 127.55 120.01 128.13
  Q 130.21 130.15 142.79 128.59
  Q 144.04 128.44 142.79 128.33"
/>
<path stroke="#828281" vector-effect="non-scaling-stroke" d="
  M 91.28 80.45
  Q 88.29 85.40 90.98 90.53
  Q 91.07 90.70 91.22 90.80
  Q 91.98 91.33 91.58 90.43
  Q 89.18 85.06 92.06 80.07
  A 0.34 0.28 -67.9 0 0 91.91 79.59
  Q 91.63 79.54 91.50 79.89
  Q 91.36 80.32 91.28 80.45"
/>
<path stroke="#828281" vector-effect="non-scaling-stroke" d="
  M 101.52 90.80
  Q 101.50 91.25 101.72 90.86
  Q 104.30 86.35 102.36 81.01
  Q 101.95 79.91 101.91 81.01
  Q 101.80 83.72 101.52 90.80"
/>
<path stroke="#828281" vector-effect="non-scaling-stroke" d="
  M 95.82 125.36
  Q 90.41 125.01 85.70 125.22
  Q 83.81 125.30 85.65 125.73
  Q 93.67 127.58 101.67 126.11
  Q 103.68 125.74 101.74 125.67
  Q 98.78 125.55 95.82 125.36"
/>
<path stroke="#828281" vector-effect="non-scaling-stroke" d="
  M 262.92 81.11
  Q 259.93 86.06 263.15 90.78
  Q 263.43 91.20 263.27 90.72
  Q 261.32 85.17 263.95 80.00
  Q 264.25 79.41 263.70 79.69
  Q 263.39 79.85 263.26 80.20
  Q 262.96 81.04 262.92 81.11"
/>
<path stroke="#828281" vector-effect="non-scaling-stroke" d="
  M 273.65 85.01
  Q 273.29 87.80 273.31 90.65
  Q 273.32 91.64 273.73 90.74
  Q 275.98 85.83 274.28 80.87
  Q 273.75 79.33 273.75 83.41
  Q 273.75 84.22 273.65 85.01"
/>
<path stroke="#828281" vector-effect="non-scaling-stroke" d="
  M 268.31 125.44
  Q 262.66 124.94 257.01 125.45
  Q 256.48 125.50 256.98 125.62
  Q 265.56 127.74 274.22 125.87
  Q 274.72 125.77 274.37 125.56
  Q 274.26 125.50 274.13 125.50
  Q 269.78 125.57 268.31 125.44"
/>
<path stroke="#828281" vector-effect="non-scaling-stroke" d="
  M 102.34 213.41
  L 117.91 229.27
  A 0.86 0.85 -45.0 0 0 119.12 229.26
  L 134.59 213.78
  A 0.85 0.83 -44.8 0 1 135.77 213.77
  L 151.24 229.12
  A 0.91 0.90 44.8 0 0 152.51 229.12
  L 168.19 213.56
  A 0.52 0.50 -45.0 0 0 168.20 212.83
  L 154.00 198.75
  Q 151.80 196.57 149.69 198.69
  L 136.01 212.37
  A 1.26 1.25 44.8 0 1 134.24 212.37
  Q 127.56 205.69 121.44 199.56
  Q 119.79 197.92 117.93 198.22
  Q 116.72 198.41 115.09 200.04
  Q 108.60 206.53 102.35 212.78
  A 0.45 0.45 0.0 0 0 102.34 213.41"
/>
<path stroke="#828281" vector-effect="non-scaling-stroke" d="
  M 185.00 263.04
  Q 184.70 264.05 183.56 265.06
  Q 176.67 271.18 169.08 279.63
  A 0.54 0.53 43.8 0 0 169.10 280.36
  L 184.64 295.87
  A 0.79 0.79 0.0 0 0 185.76 295.87
  L 201.45 280.17
  A 0.60 0.59 43.7 0 0 201.43 279.31
  Q 192.98 271.54 185.25 263.04"
/>
<path stroke="#828281" vector-effect="non-scaling-stroke" d="
  M 185.25 263.04
  L 201.75 246.71"
/>
<path stroke="#828281" vector-effect="non-scaling-stroke" d="
  M 201.75 246.71
  L 217.85 262.50
  A 0.91 0.88 44.8 0 0 219.10 262.52
  L 234.87 246.88
  A 0.55 0.54 44.6 0 0 234.86 246.10
  L 219.01 230.38
  A 0.61 0.59 45.3 0 1 219.00 229.52
  L 234.94 213.66
  A 0.52 0.51 45.0 0 1 235.67 213.67
  L 251.60 229.48
  A 0.48 0.46 44.6 0 0 252.26 229.49
  L 268.16 213.57
  A 0.57 0.56 45.4 0 0 268.16 212.78
  Q 261.56 206.19 255.57 199.94
  Q 252.18 196.40 248.56 200.06
  Q 242.73 205.98 235.88 212.59
  A 0.85 0.83 45.5 0 1 234.70 212.57
  Q 228.46 206.25 221.78 199.75
  Q 220.52 198.53 219.41 198.27
  Q 217.77 197.89 216.46 198.72
  Q 216.31 198.81 213.69 201.44
  Q 207.89 207.28 202.00 213.04"
/>
<path stroke="#040503" vector-effect="non-scaling-stroke" d="
  M 202.00 213.04
  L 201.75 213.04"
/>
<path stroke="#828281" vector-effect="non-scaling-stroke" d="
  M 201.75 213.04
  Q 195.06 206.49 188.46 199.84
  Q 186.90 198.28 185.42 198.22
  Q 183.35 198.14 181.90 199.78
  Q 180.67 201.18 180.59 201.25
  Q 174.70 206.93 169.09 212.89
  A 0.52 0.52 44.6 0 0 169.10 213.61
  L 184.56 229.18
  A 0.99 0.97 45.2 0 1 184.57 230.56
  L 169.39 245.74
  A 1.17 1.17 -44.8 0 1 167.74 245.74
  L 152.29 230.41
  A 0.77 0.77 -45.1 0 0 151.20 230.42
  L 135.73 246.15
  A 0.67 0.66 -45.3 0 0 135.73 247.10
  L 151.39 262.65
  A 0.51 0.51 0.0 0 0 152.11 262.65
  L 168.08 246.92
  A 0.68 0.66 -45.0 0 1 169.03 246.91
  L 185.00 263.04"
/>
<path stroke="#828281" vector-effect="non-scaling-stroke" d="
  M 201.75 213.04
  L 185.95 229.15
  A 1.02 1.00 -45.4 0 0 185.95 230.57
  L 201.79 246.50"
/>
<path stroke="#fff456456" vector-effect="non-scaling-stroke" d="
  M 201.79 246.50
  L 201.75 246.71"
/>
<path stroke="#ffffff" vector-effect="non-scaling-stroke" d="
  M 185.25 263.04
  L 185.00 263.04"
/>
<path stroke="#828281" vector-effect="non-scaling-stroke" d="
  M 201.79 246.50
  L 217.89 230.46
  A 0.87 0.85 45.7 0 0 217.89 229.25
  L 202.00 213.04"
/>
</g>
<path fill="none" d="
  M 0.00 0.00
  L 379.00 0.00
  L 379.00 331.00
  L 0.00 331.00
  L 0.00 0.00
  Z
  M 286.87 119.15
  A 1.49 1.49 14.9 0 1 285.92 117.51
  Q 286.61 113.19 283.65 111.35
  Q 283.63 111.34 282.29 110.77
  Q 279.43 109.55 280.29 104.57
  A 1.72 1.72 -9.7 0 1 281.15 103.36
  Q 288.54 99.25 283.43 92.91
  A 1.01 1.01 40.0 0 1 283.33 91.81
  Q 286.35 86.02 283.63 80.10
  Q 282.71 78.09 281.26 76.87
  Q 279.68 75.55 277.66 74.88
  Q 270.82 72.62 264.09 75.14
  Q 259.82 76.74 258.33 81.03
  Q 256.27 86.99 259.25 92.32
  A 0.50 0.50 56.7 0 1 259.12 92.95
  Q 254.39 96.74 257.81 101.19
  Q 258.82 102.49 261.45 103.40
  A 0.97 0.90 3.6 0 1 262.07 104.05
  Q 262.83 106.99 261.65 109.72
  A 1.05 0.94 3.1 0 1 260.94 110.29
  Q 255.81 111.46 256.30 117.62
  A 1.84 1.43 -23.8 0 1 255.52 119.07
  L 251.12 122.25
  A 0.63 0.53 -40.3 0 1 250.38 122.25
  L 247.62 119.59
  A 0.89 0.75 -63.6 0 1 247.42 118.77
  L 248.43 114.74
  A 1.72 1.01 52.5 0 0 248.31 113.79
  Q 243.21 100.82 249.26 88.26
  Q 252.49 81.55 252.76 74.20
  Q 252.88 70.98 252.14 68.37
  Q 251.23 65.12 249.44 63.06
  Q 242.55 55.16 231.07 53.87
  A 0.86 0.84 21.1 0 0 230.28 54.21
  L 226.23 59.79
  A 1.47 1.44 9.4 0 1 225.46 60.33
  Q 221.35 61.53 217.10 61.99
  Q 211.79 62.57 210.13 63.53
  Q 206.15 65.84 206.13 71.06
  Q 206.12 73.61 206.33 74.95
  Q 206.69 77.27 208.38 78.46
  Q 209.11 78.97 209.61 79.71
  Q 213.20 84.95 216.50 84.00
  Q 219.43 83.16 222.02 82.10
  Q 223.73 81.39 222.70 82.93
  Q 218.60 89.00 213.32 94.07
  Q 209.78 97.47 207.59 101.74
  Q 206.05 104.73 206.30 108.05
  Q 206.71 113.53 209.32 118.34
  A 1.08 0.95 -40.0 0 1 209.15 119.48
  L 204.22 125.27
  A 0.92 0.67 -59.4 0 1 203.45 125.60
  Q 201.92 125.25 200.84 124.13
  A 0.78 0.72 -56.1 0 1 200.71 123.30
  Q 203.20 117.64 197.82 114.50
  A 1.45 1.45 -85.1 0 1 197.20 113.76
  Q 191.78 99.43 193.94 85.37
  A 1.64 1.61 -10.7 0 1 194.75 84.21
  Q 203.44 79.34 198.62 72.94
  Q 197.52 71.48 196.78 70.26
  Q 195.93 68.85 194.83 67.61
  A 1.57 1.41 24.6 0 1 194.46 66.76
  Q 193.69 57.35 198.53 50.06
  Q 199.39 48.76 197.75 48.72
  L 191.99 48.57
  A 1.36 0.43 46.5 0 1 191.18 48.12
  L 188.98 46.20
  A 1.54 0.93 26.3 0 1 188.49 45.43
  Q 187.46 38.80 181.27 39.58
  Q 178.88 39.89 177.57 41.17
  Q 175.98 42.71 175.93 45.19
  A 1.14 1.04 -21.6 0 1 175.54 45.99
  L 172.80 48.34
  A 1.50 1.10 -58.6 0 1 171.93 48.70
  L 166.20 48.75
  Q 164.79 48.76 165.55 49.92
  Q 170.66 57.75 169.80 67.00
  A 1.40 1.26 -22.0 0 1 169.39 67.84
  Q 168.32 68.91 167.52 70.17
  Q 166.87 71.19 165.45 72.88
  Q 163.10 75.70 164.51 79.62
  Q 165.73 82.98 169.31 83.76
  A 1.22 1.22 -88.2 0 1 170.25 84.76
  Q 172.65 99.89 166.88 113.98
  A 1.41 1.18 -5.4 0 1 166.23 114.64
  Q 163.20 116.08 162.68 120.04
  A 0.43 0.42 -76.7 0 1 162.12 120.39
  Q 160.93 119.96 160.32 119.38
  A 1.35 0.92 -74.4 0 1 160.02 118.49
  Q 160.13 113.67 157.71 109.72
  Q 156.41 107.60 156.13 105.94
  Q 153.93 92.94 155.74 79.81
  A 1.05 0.97 -12.0 0 1 156.25 79.09
  Q 158.36 77.88 158.70 75.69
  Q 158.81 74.93 157.99 72.07
  Q 157.46 70.24 157.70 68.24
  Q 158.20 64.12 155.58 62.32
  Q 154.03 61.25 150.19 61.24
  Q 138.29 61.22 126.39 61.30
  Q 124.05 61.32 122.86 61.94
  Q 120.93 62.96 120.50 65.00
  Q 120.27 66.10 120.21 70.10
  Q 120.19 71.09 119.50 73.63
  Q 118.61 76.94 121.76 79.05
  A 1.14 1.06 13.8 0 1 122.26 79.81
  Q 124.21 93.09 121.88 106.23
  Q 121.59 107.86 120.30 109.91
  Q 117.89 113.76 117.98 118.50
  A 1.03 0.86 74.6 0 1 117.61 119.31
  Q 115.89 120.53 114.53 118.67
  A 1.38 1.07 -64.5 0 1 114.33 117.76
  Q 115.02 112.44 109.57 110.22
  A 1.81 1.77 2.7 0 1 108.53 109.10
  Q 107.67 106.42 108.40 104.03
  A 1.03 0.92 -2.9 0 1 109.03 103.41
  Q 112.60 102.16 113.44 100.19
  Q 115.29 95.83 111.76 93.33
  A 1.14 1.14 -59.8 0 1 111.39 91.92
  Q 113.94 86.48 112.31 81.42
  Q 111.39 78.54 109.22 76.77
  Q 107.00 74.97 103.94 74.31
  Q 98.66 73.18 93.75 74.51
  Q 88.69 75.88 86.81 79.81
  Q 83.93 85.84 87.26 92.31
  A 0.57 0.55 -31.5 0 1 87.07 93.03
  Q 83.09 95.77 85.31 100.44
  Q 86.21 102.32 89.57 103.30
  A 0.94 0.83 2.8 0 1 90.20 103.91
  Q 90.76 106.12 90.24 108.68
  A 2.37 2.35 -3.5 0 1 88.66 110.45
  Q 83.92 112.00 84.54 117.08
  A 2.22 2.22 74.1 0 1 83.27 119.37
  Q 77.34 122.13 78.04 128.52
  Q 78.25 130.50 78.25 132.56
  A 2.21 2.20 -78.5 0 0 79.59 134.59
  Q 84.47 136.68 89.50 137.23
  Q 99.45 138.34 109.40 137.31
  Q 109.52 137.30 110.58 137.07
  Q 112.11 136.74 112.29 138.45
  A 0.74 0.69 -85.6 0 0 112.79 139.08
  Q 133.71 145.05 155.20 141.40
  A 0.67 0.64 71.7 0 1 155.89 141.77
  Q 157.35 144.80 161.06 145.44
  Q 180.92 148.87 200.27 146.16
  Q 204.08 145.63 208.28 142.94
  A 1.57 1.54 32.9 0 1 209.35 142.72
  Q 227.85 145.78 246.23 142.85
  Q 250.36 142.19 252.31 140.56
  Q 254.04 139.12 253.64 136.30
  A 0.34 0.34 3.1 0 1 254.06 135.93
  Q 270.68 139.72 287.75 136.00
  Q 291.75 135.13 292.31 131.94
  Q 292.58 130.40 292.39 126.55
  Q 292.11 121.10 286.87 119.15
  Z
  M 74.75 154.29
  L 74.71 154.50
  Q 67.97 154.50 61.22 154.50
  Q 56.94 154.50 56.79 154.52
  Q 53.81 154.94 53.14 157.68
  Q 53.01 158.24 52.98 163.33
  Q 52.94 170.71 53.06 172.69
  Q 53.20 175.03 55.75 176.04
  L 54.50 176.46
  Q 47.44 176.38 40.38 176.49
  Q 40.25 176.49 38.63 176.40
  Q 36.39 176.29 35.18 177.73
  Q 34.25 178.84 34.25 181.51
  Q 34.25 186.53 34.25 191.56
  Q 34.25 191.69 34.16 193.43
  Q 33.92 198.25 38.75 198.25
  Q 56.00 198.25 73.25 198.25
  A 1.47 1.42 -24.9 0 1 74.15 198.56
  Q 75.62 199.73 77.94 202.06
  Q 110.04 234.34 182.00 306.00
  Q 183.61 307.60 186.06 307.09
  Q 187.61 306.76 189.34 305.04
  Q 242.71 252.04 295.90 198.85
  A 1.25 1.23 21.6 0 1 296.75 198.49
  Q 324.76 197.76 329.75 198.25
  Q 336.68 198.93 336.37 192.69
  Q 336.25 190.36 336.25 190.31
  Q 336.25 185.28 336.25 180.24
  Q 336.25 176.57 332.60 176.55
  L 314.50 176.46
  Q 315.65 175.75 316.47 174.75
  Q 317.19 173.86 317.29 172.40
  Q 317.60 167.58 317.31 159.19
  Q 317.22 156.31 315.39 155.17
  Q 314.33 154.50 311.48 154.50
  Q 303.89 154.50 296.29 154.50
  L 296.21 154.25
  Q 298.78 153.21 298.94 150.94
  Q 299.08 148.95 299.03 139.00
  Q 299.01 135.35 295.57 134.52
  A 1.69 1.66 -53.2 0 0 294.32 134.71
  Q 288.09 138.44 282.76 139.09
  Q 270.57 140.57 258.42 138.82
  Q 258.10 138.77 256.78 138.34
  Q 255.17 137.83 255.22 139.75
  A 1.37 1.09 70.4 0 1 254.92 140.63
  Q 252.02 143.82 248.25 144.50
  Q 229.58 147.87 209.50 144.83
  A 1.44 1.40 -54.5 0 0 208.57 145.00
  Q 203.20 147.99 195.50 148.50
  Q 178.11 149.65 164.75 148.00
  Q 158.49 147.23 154.62 143.84
  A 1.10 1.06 61.1 0 0 153.75 143.57
  Q 133.54 146.39 113.25 141.25
  Q 111.31 140.76 110.10 139.61
  A 1.14 0.97 60.6 0 0 109.26 139.30
  Q 101.14 140.13 92.99 139.70
  Q 84.84 139.27 75.65 134.75
  A 1.80 1.78 48.4 0 0 74.28 134.66
  Q 71.11 135.75 71.28 139.51
  Q 71.50 144.37 71.50 149.25
  Q 71.50 153.40 74.75 154.29
  Z"
/>
<path fill="#040503" d="
  M 286.87 119.15
  Q 292.11 121.10 292.39 126.55
  Q 292.58 130.40 292.31 131.94
  Q 291.75 135.13 287.75 136.00
  Q 270.68 139.72 254.06 135.93
  A 0.34 0.34 3.1 0 0 253.64 136.30
  Q 254.04 139.12 252.31 140.56
  Q 250.36 142.19 246.23 142.85
  Q 227.85 145.78 209.35 142.72
  A 1.57 1.54 32.9 0 0 208.28 142.94
  Q 204.08 145.63 200.27 146.16
  Q 180.92 148.87 161.06 145.44
  Q 157.35 144.80 155.89 141.77
  A 0.67 0.64 71.7 0 0 155.20 141.40
  Q 133.71 145.05 112.79 139.08
  A 0.74 0.69 -85.6 0 1 112.29 138.45
  Q 112.11 136.74 110.58 137.07
  Q 109.52 137.30 109.40 137.31
  Q 99.45 138.34 89.50 137.23
  Q 84.47 136.68 79.59 134.59
  A 2.21 2.20 -78.5 0 1 78.25 132.56
  Q 78.25 130.50 78.04 128.52
  Q 77.34 122.13 83.27 119.37
  A 2.22 2.22 74.1 0 0 84.54 117.08
  Q 83.92 112.00 88.66 110.45
  A 2.37 2.35 -3.5 0 0 90.24 108.68
  Q 90.76 106.12 90.20 103.91
  A 0.94 0.83 2.8 0 0 89.57 103.30
  Q 86.21 102.32 85.31 100.44
  Q 83.09 95.77 87.07 93.03
  A 0.57 0.55 -31.5 0 0 87.26 92.31
  Q 83.93 85.84 86.81 79.81
  Q 88.69 75.88 93.75 74.51
  Q 98.66 73.18 103.94 74.31
  Q 107.00 74.97 109.22 76.77
  Q 111.39 78.54 112.31 81.42
  Q 113.94 86.48 111.39 91.92
  A 1.14 1.14 -59.8 0 0 111.76 93.33
  Q 115.29 95.83 113.44 100.19
  Q 112.60 102.16 109.03 103.41
  A 1.03 0.92 -2.9 0 0 108.40 104.03
  Q 107.67 106.42 108.53 109.10
  A 1.81 1.77 2.7 0 0 109.57 110.22
  Q 115.02 112.44 114.33 117.76
  A 1.38 1.07 -64.5 0 0 114.53 118.67
  Q 115.89 120.53 117.61 119.31
  A 1.03 0.86 74.6 0 0 117.98 118.50
  Q 117.89 113.76 120.30 109.91
  Q 121.59 107.86 121.88 106.23
  Q 124.21 93.09 122.26 79.81
  A 1.14 1.06 13.8 0 0 121.76 79.05
  Q 118.61 76.94 119.50 73.63
  Q 120.19 71.09 120.21 70.10
  Q 120.27 66.10 120.50 65.00
  Q 120.93 62.96 122.86 61.94
  Q 124.05 61.32 126.39 61.30
  Q 138.29 61.22 150.19 61.24
  Q 154.03 61.25 155.58 62.32
  Q 158.20 64.12 157.70 68.24
  Q 157.46 70.24 157.99 72.07
  Q 158.81 74.93 158.70 75.69
  Q 158.36 77.88 156.25 79.09
  A 1.05 0.97 -12.0 0 0 155.74 79.81
  Q 153.93 92.94 156.13 105.94
  Q 156.41 107.60 157.71 109.72
  Q 160.13 113.67 160.02 118.49
  A 1.35 0.92 -74.4 0 0 160.32 119.38
  Q 160.93 119.96 162.12 120.39
  A 0.43 0.42 -76.7 0 0 162.68 120.04
  Q 163.20 116.08 166.23 114.64
  A 1.41 1.18 -5.4 0 0 166.88 113.98
  Q 172.65 99.89 170.25 84.76
  A 1.22 1.22 -88.2 0 0 169.31 83.76
  Q 165.73 82.98 164.51 79.62
  Q 163.10 75.70 165.45 72.88
  Q 166.87 71.19 167.52 70.17
  Q 168.32 68.91 169.39 67.84
  A 1.40 1.26 -22.0 0 0 169.80 67.00
  Q 170.66 57.75 165.55 49.92
  Q 164.79 48.76 166.20 48.75
  L 171.93 48.70
  A 1.50 1.10 -58.6 0 0 172.80 48.34
  L 175.54 45.99
  A 1.14 1.04 -21.6 0 0 175.93 45.19
  Q 175.98 42.71 177.57 41.17
  Q 178.88 39.89 181.27 39.58
  Q 187.46 38.80 188.49 45.43
  A 1.54 0.93 26.3 0 0 188.98 46.20
  L 191.18 48.12
  A 1.36 0.43 46.5 0 0 191.99 48.57
  L 197.75 48.72
  Q 199.39 48.76 198.53 50.06
  Q 193.69 57.35 194.46 66.76
  A 1.57 1.41 24.6 0 0 194.83 67.61
  Q 195.93 68.85 196.78 70.26
  Q 197.52 71.48 198.62 72.94
  Q 203.44 79.34 194.75 84.21
  A 1.64 1.61 -10.7 0 0 193.94 85.37
  Q 191.78 99.43 197.20 113.76
  A 1.45 1.45 -85.1 0 0 197.82 114.50
  Q 203.20 117.64 200.71 123.30
  A 0.78 0.72 -56.1 0 0 200.84 124.13
  Q 201.92 125.25 203.45 125.60
  A 0.92 0.67 -59.4 0 0 204.22 125.27
  L 209.15 119.48
  A 1.08 0.95 -40.0 0 0 209.32 118.34
  Q 206.71 113.53 206.30 108.05
  Q 206.05 104.73 207.59 101.74
  Q 209.78 97.47 213.32 94.07
  Q 218.60 89.00 222.70 82.93
  Q 223.73 81.39 222.02 82.10
  Q 219.43 83.16 216.50 84.00
  Q 213.20 84.95 209.61 79.71
  Q 209.11 78.97 208.38 78.46
  Q 206.69 77.27 206.33 74.95
  Q 206.12 73.61 206.13 71.06
  Q 206.15 65.84 210.13 63.53
  Q 211.79 62.57 217.10 61.99
  Q 221.35 61.53 225.46 60.33
  A 1.47 1.44 9.4 0 0 226.23 59.79
  L 230.28 54.21
  A 0.86 0.84 21.1 0 1 231.07 53.87
  Q 242.55 55.16 249.44 63.06
  Q 251.23 65.12 252.14 68.37
  Q 252.88 70.98 252.76 74.20
  Q 252.49 81.55 249.26 88.26
  Q 243.21 100.82 248.31 113.79
  A 1.72 1.01 52.5 0 1 248.43 114.74
  L 247.42 118.77
  A 0.89 0.75 -63.6 0 0 247.62 119.59
  L 250.38 122.25
  A 0.63 0.53 -40.3 0 0 251.12 122.25
  L 255.52 119.07
  A 1.84 1.43 -23.8 0 0 256.30 117.62
  Q 255.81 111.46 260.94 110.29
  A 1.05 0.94 3.1 0 0 261.65 109.72
  Q 262.83 106.99 262.07 104.05
  A 0.97 0.90 3.6 0 0 261.45 103.40
  Q 258.82 102.49 257.81 101.19
  Q 254.39 96.74 259.12 92.95
  A 0.50 0.50 56.7 0 0 259.25 92.32
  Q 256.27 86.99 258.33 81.03
  Q 259.82 76.74 264.09 75.14
  Q 270.82 72.62 277.66 74.88
  Q 279.68 75.55 281.26 76.87
  Q 282.71 78.09 283.63 80.10
  Q 286.35 86.02 283.33 91.81
  A 1.01 1.01 40.0 0 0 283.43 92.91
  Q 288.54 99.25 281.15 103.36
  A 1.72 1.72 -9.7 0 0 280.29 104.57
  Q 279.43 109.55 282.29 110.77
  Q 283.63 111.34 283.65 111.35
  Q 286.61 113.19 285.92 117.51
  A 1.49 1.49 14.9 0 0 286.87 119.15
  Z
  M 172.54 56.25
  Q 171.81 57.40 172.75 58.29
  Q 174.05 64.09 172.34 69.71
  Q 172.25 69.99 171.77 70.47
  L 170.34 71.90
  A 1.35 0.39 89.3 0 0 170.09 72.82
  Q 170.04 73.67 169.19 74.19
  Q 165.92 76.18 167.81 78.99
  Q 168.45 79.96 169.70 80.36
  Q 170.85 80.72 172.06 80.88
  A 0.79 0.73 -3.1 0 1 172.70 81.41
  Q 176.01 92.73 173.32 104.27
  Q 171.85 110.56 169.84 116.71
  A 0.91 0.87 1.4 0 1 169.20 117.29
  Q 164.17 118.48 167.46 122.95
  A 1.23 1.22 43.6 0 1 167.50 124.35
  Q 165.54 127.30 162.52 128.84
  Q 160.29 129.97 159.74 131.06
  Q 158.56 133.43 160.43 135.86
  A 0.92 0.75 41.1 0 1 160.58 136.72
  L 159.40 139.38
  Q 158.59 141.21 160.42 141.75
  Q 165.66 143.30 170.76 143.78
  Q 174.11 144.10 181.25 144.28
  Q 190.29 144.50 199.25 142.96
  Q 203.22 141.98 198.75 142.71
  L 195.14 143.27
  A 0.92 0.91 4.6 0 1 194.13 142.09
  Q 194.63 140.54 193.96 138.95
  A 0.79 0.73 -10.7 0 0 193.25 138.50
  Q 178.34 138.51 163.56 136.51
  Q 163.06 136.44 163.57 136.46
  Q 178.03 137.17 192.44 135.74
  A 1.20 1.01 11.0 0 0 193.24 135.30
  Q 194.51 133.52 193.06 131.69
  Q 190.45 128.38 189.44 124.92
  A 0.72 0.69 83.4 0 0 188.81 124.40
  L 171.54 123.31
  Q 168.66 123.13 171.54 122.94
  L 189.45 121.72
  A 0.65 0.63 3.3 0 0 190.05 121.20
  Q 190.63 118.09 187.58 118.18
  Q 185.99 118.22 185.92 118.22
  Q 179.72 117.99 173.52 117.76
  Q 173.23 117.75 173.01 117.63
  Q 172.00 117.07 173.87 117.22
  Q 174.28 117.25 174.61 117.23
  Q 179.08 116.93 184.29 116.72
  A 0.92 0.89 86.9 0 0 185.14 115.74
  L 184.31 101.25
  Q 184.18 98.93 184.81 101.17
  Q 185.81 104.74 186.71 108.31
  Q 186.85 108.89 187.07 108.74
  A 0.59 0.37 71.6 0 0 187.20 108.22
  Q 185.03 96.39 185.75 89.75
  Q 186.17 85.84 187.53 82.74
  A 0.66 0.66 14.3 0 0 186.98 81.82
  Q 180.63 81.25 175.00 81.00
  Q 174.69 80.99 174.59 80.86
  Q 174.34 80.57 174.87 80.55
  Q 180.47 80.29 186.07 79.86
  Q 188.62 79.67 188.89 79.48
  Q 190.04 78.72 189.49 75.91
  A 1.06 1.03 85.6 0 0 188.53 75.06
  L 171.72 74.20
  Q 171.07 74.16 171.54 73.86
  Q 171.71 73.75 172.00 73.75
  Q 178.32 73.66 187.70 72.97
  A 0.51 0.47 -5.6 0 0 188.17 72.44
  Q 188.00 71.23 186.74 71.21
  Q 185.83 71.21 185.76 71.20
  Q 180.33 70.64 174.88 70.75
  Q 174.72 70.75 174.64 70.70
  Q 174.45 70.57 174.68 70.40
  Q 174.79 70.32 174.97 70.30
  Q 179.86 69.81 185.01 69.48
  A 0.92 0.91 -9.1 0 0 185.84 68.34
  Q 183.74 60.25 187.91 53.73
  A 0.33 0.32 -68.6 0 0 187.70 53.23
  Q 182.91 52.45 178.07 52.21
  Q 173.96 52.01 178.25 51.80
  Q 181.88 51.62 185.52 51.25
  Q 186.41 51.16 185.85 50.46
  Q 184.14 48.29 181.30 47.98
  Q 180.95 47.94 181.31 47.86
  Q 183.38 47.39 183.17 45.01
  Q 182.89 41.99 184.54 44.25
  L 184.44 46.96
  Q 184.43 47.37 184.69 47.10
  Q 186.01 45.76 185.04 44.00
  Q 184.51 42.50 183.25 42.50
  Q 176.71 42.52 179.97 47.58
  A 0.36 0.35 -23.0 0 1 179.75 48.11
  Q 177.38 48.69 175.69 50.41
  Q 175.65 50.45 175.05 51.29
  Q 174.22 52.47 172.17 51.91
  Q 170.19 51.37 171.06 53.17
  L 172.54 56.25
  Z
  M 192.04 58.00
  Q 190.88 62.37 192.12 66.72
  Q 192.54 68.21 192.72 66.96
  Q 192.75 66.76 192.72 66.55
  Q 192.01 62.27 192.71 58.00
  L 193.91 53.52
  A 0.36 0.22 -77.9 0 0 193.76 53.09
  Q 193.58 53.07 193.44 53.44
  Q 192.27 56.55 192.04 58.00
  Z
  M 242.79 108.25
  Q 245.44 118.88 243.29 108.00
  Q 241.60 97.35 246.37 87.84
  Q 249.47 81.66 250.00 74.75
  Q 250.46 68.72 247.44 65.06
  Q 242.18 58.71 232.80 57.14
  A 1.03 1.00 27.4 0 0 231.94 57.40
  Q 230.18 59.06 229.45 60.81
  Q 228.81 62.35 227.25 62.96
  Q 222.36 64.86 217.67 65.34
  Q 213.04 65.81 211.98 66.39
  Q 208.75 68.17 209.87 72.77
  A 0.73 0.65 83.4 0 0 210.49 73.32
  L 215.76 73.53
  A 1.65 0.87 -11.4 0 1 216.65 73.79
  Q 219.12 75.67 215.93 76.56
  Q 215.87 76.58 214.94 76.75
  Q 212.61 77.18 214.04 79.77
  A 1.07 1.07 60.9 0 0 215.50 80.19
  Q 221.47 76.80 227.72 78.12
  Q 233.65 79.38 238.76 76.32
  Q 239.20 76.06 238.92 76.47
  Q 235.88 80.95 229.95 80.94
  Q 228.18 80.93 229.79 81.65
  Q 234.17 83.61 226.89 83.22
  A 0.85 0.84 16.6 0 0 226.11 83.64
  Q 222.84 89.31 218.41 93.66
  Q 213.31 98.68 211.00 102.50
  Q 209.04 105.75 209.75 109.00
  Q 210.86 114.05 213.51 118.51
  Q 214.59 120.34 212.78 121.43
  Q 209.37 123.50 207.24 127.30
  A 0.98 0.93 47.1 0 0 207.23 128.19
  Q 208.93 131.66 207.83 135.84
  Q 207.06 138.78 210.03 139.42
  Q 227.18 143.13 245.19 139.78
  Q 245.74 139.68 245.20 139.63
  Q 243.70 139.48 242.24 139.86
  A 1.29 0.77 -25.9 0 1 241.31 139.78
  Q 240.28 139.07 240.94 137.20
  A 1.10 1.10 9.3 0 0 239.89 135.74
  Q 224.59 135.96 210.05 134.01
  Q 209.56 133.94 210.07 133.95
  Q 225.15 134.34 240.18 132.98
  A 0.62 0.60 0.5 0 0 240.75 132.44
  Q 241.42 126.52 237.52 122.18
  A 1.24 1.09 -16.2 0 0 236.69 121.79
  L 217.32 120.73
  Q 216.80 120.70 217.32 120.67
  L 235.43 119.72
  A 0.56 0.47 -4.5 0 0 235.97 119.19
  L 235.65 116.48
  A 0.72 0.57 -0.5 0 0 235.00 115.97
  Q 225.01 115.30 215.00 114.90
  Q 214.73 114.89 214.74 114.73
  A 0.27 0.17 2.6 0 1 215.01 114.57
  Q 223.72 114.64 232.41 114.06
  Q 232.77 114.03 234.07 114.13
  Q 235.77 114.25 235.40 112.72
  Q 235.29 112.27 235.31 111.76
  Q 235.33 111.23 235.16 110.75
  A 0.96 0.78 -3.7 0 0 234.44 110.24
  Q 229.90 109.54 233.94 109.00
  A 1.39 1.04 9.1 0 0 234.77 108.56
  Q 236.19 106.67 232.82 105.01
  Q 231.68 104.45 232.95 104.48
  Q 235.72 104.56 234.77 101.84
  A 0.93 0.92 -3.4 0 0 234.09 101.24
  Q 231.40 100.70 234.69 99.61
  A 1.23 1.23 -87.0 0 0 235.40 98.97
  Q 236.48 96.65 234.26 96.39
  Q 232.25 96.15 234.45 95.76
  Q 237.08 95.29 237.19 92.82
  A 0.75 0.70 13.1 0 0 236.72 92.13
  Q 234.28 91.12 237.04 91.01
  Q 237.55 90.99 237.89 90.76
  Q 239.20 89.86 239.59 88.30
  A 0.55 0.50 14.6 0 0 239.19 87.68
  Q 236.18 86.86 239.55 86.56
  A 1.78 1.78 18.5 0 0 240.72 85.98
  Q 243.23 83.23 241.00 82.59
  Q 239.96 82.29 241.32 82.22
  Q 244.28 82.06 244.12 79.43
  A 0.68 0.62 4.4 0 0 243.57 78.85
  Q 240.56 78.26 243.43 77.64
  Q 245.82 77.11 245.12 75.03
  A 1.03 0.88 1.4 0 0 244.45 74.43
  Q 240.69 73.42 244.50 73.04
  A 0.81 0.71 4.4 0 0 245.18 72.53
  Q 245.80 70.42 242.86 69.46
  Q 242.04 69.20 242.88 69.02
  Q 245.06 68.58 243.81 66.94
  Q 242.74 65.52 241.94 64.99
  A 1.42 1.19 13.5 0 1 241.40 64.26
  Q 240.88 62.23 238.47 61.40
  Q 237.81 61.17 237.31 60.68
  Q 235.29 58.67 236.55 59.08
  Q 252.05 64.15 247.94 80.44
  Q 247.32 82.88 245.17 87.92
  Q 243.15 92.63 242.66 95.44
  Q 241.55 101.79 242.79 108.25
  Z
  M 130.00 77.71
  L 130.00 77.29
  Q 138.20 76.40 146.45 76.26
  Q 147.06 76.25 147.51 76.03
  Q 149.18 75.22 147.31 74.65
  Q 146.84 74.50 146.17 74.49
  Q 137.70 74.28 129.25 73.71
  L 128.75 73.29
  L 146.80 72.34
  A 0.61 0.52 -2.2 0 0 147.38 71.81
  L 147.28 65.69
  A 0.64 0.54 83.9 0 1 147.70 65.07
  Q 149.73 64.60 151.50 64.73
  Q 154.84 64.97 154.29 68.50
  Q 154.90 75.67 154.79 68.25
  Q 155.09 65.76 153.50 64.69
  Q 152.56 64.05 150.25 64.08
  Q 137.65 64.22 125.33 64.49
  A 1.67 1.63 89.5 0 0 123.74 66.15
  L 123.70 72.93
  A 1.56 1.08 -33.2 0 1 123.35 73.80
  Q 121.94 75.53 124.74 76.60
  A 1.85 1.84 8.5 0 1 125.91 78.17
  Q 126.69 87.99 126.59 96.75
  Q 126.51 103.93 124.40 110.78
  A 1.97 1.54 -18.2 0 1 123.87 111.57
  Q 121.43 113.70 121.75 116.75
  Q 122.05 119.64 120.73 121.44
  Q 120.71 121.47 117.93 123.64
  Q 115.26 125.72 115.36 129.31
  Q 115.43 132.02 115.43 132.20
  Q 115.41 134.09 115.72 135.95
  A 0.80 0.79 2.5 0 0 116.30 136.57
  Q 135.72 141.74 155.56 138.11
  Q 155.82 138.06 156.04 137.93
  Q 157.12 137.29 155.04 137.90
  Q 152.43 138.67 153.12 135.12
  A 0.89 0.88 5.3 0 0 152.24 134.07
  Q 136.63 134.28 120.44 132.49
  Q 119.94 132.44 120.44 132.45
  Q 136.52 132.74 152.51 131.05
  A 0.66 0.64 1.6 0 0 153.09 130.52
  Q 153.80 126.37 150.62 123.88
  Q 150.19 123.54 149.85 123.14
  Q 149.51 122.72 149.11 122.34
  A 1.37 1.19 -18.4 0 0 148.24 121.98
  Q 136.74 121.47 125.24 120.97
  Q 124.78 120.95 124.62 120.77
  Q 124.24 120.34 125.03 120.32
  L 148.06 119.60
  A 0.62 0.62 3.4 0 0 148.65 119.08
  Q 149.11 116.22 148.12 113.53
  A 0.78 0.76 -8.0 0 0 147.44 113.03
  Q 137.61 112.43 127.77 112.01
  Q 127.48 112.00 127.24 111.92
  Q 125.53 111.39 128.00 111.36
  Q 134.88 111.26 142.33 110.98
  A 0.52 0.51 85.4 0 0 142.82 110.40
  Q 141.68 100.35 142.71 90.94
  Q 142.78 90.27 142.83 90.77
  Q 143.59 97.61 145.23 104.30
  Q 145.42 105.10 145.33 104.34
  Q 143.71 91.61 146.33 79.05
  A 0.44 0.42 -82.6 0 0 145.94 78.52
  L 130.00 77.71
  Z
  M 99.79 108.00
  Q 100.90 107.71 100.46 106.50
  L 100.64 101.82
  A 0.68 0.60 -81.7 0 0 100.21 101.16
  Q 98.65 100.69 97.00 100.77
  Q 93.69 100.93 95.63 100.35
  Q 95.97 100.25 96.39 100.24
  Q 98.68 100.16 100.95 99.77
  A 0.98 0.88 6.3 0 0 101.67 99.25
  Q 102.54 97.33 101.00 95.96
  Q 101.14 95.02 100.29 94.75
  Q 99.30 94.00 98.00 94.04
  L 95.55 93.65
  Q 94.92 93.55 95.56 93.49
  L 100.98 93.02
  A 2.68 2.38 9.3 0 0 103.05 91.71
  Q 106.04 85.93 103.51 78.56
  Q 103.34 78.07 103.82 78.27
  Q 107.79 79.88 108.69 82.77
  Q 110.00 86.93 107.96 90.73
  Q 106.47 93.51 108.44 91.19
  Q 110.08 89.26 110.18 85.50
  Q 110.39 78.12 103.33 76.60
  Q 99.59 75.79 96.00 76.51
  Q 91.94 77.32 89.87 79.94
  Q 87.06 83.51 88.99 88.79
  Q 90.08 91.79 92.94 93.51
  Q 94.62 94.53 92.66 94.97
  L 89.25 95.75
  Q 86.46 96.39 87.81 98.19
  Q 89.38 100.27 92.00 100.48
  A 0.87 0.79 -8.2 0 1 92.71 100.96
  Q 95.73 107.76 91.02 113.07
  A 1.40 1.10 12.4 0 1 90.19 113.47
  Q 86.74 113.86 87.56 118.07
  Q 88.10 120.81 85.45 121.68
  Q 80.37 123.36 81.50 129.25
  Q 82.12 132.50 83.00 132.75
  Q 96.76 136.67 110.87 134.10
  Q 111.07 134.06 111.22 133.94
  Q 111.92 133.39 110.79 133.53
  Q 110.59 133.56 110.35 133.66
  Q 107.42 134.98 107.53 131.94
  A 0.49 0.47 -88.2 0 0 107.07 131.43
  Q 97.21 131.32 87.46 130.06
  Q 84.42 129.67 87.48 129.75
  Q 97.15 129.99 107.07 128.97
  A 0.70 0.69 1.6 0 0 107.68 128.40
  Q 108.33 124.75 106.42 122.84
  Q 105.15 121.57 101.69 121.32
  Q 96.24 120.92 90.80 120.48
  Q 90.29 120.44 90.81 120.41
  L 103.69 119.71
  A 0.69 0.65 4.4 0 0 104.31 119.21
  Q 104.81 117.00 104.00 114.90
  A 0.81 0.80 81.9 0 0 103.31 114.38
  L 93.57 113.70
  Q 93.09 113.67 93.55 113.55
  Q 95.65 112.99 98.32 113.32
  A 1.55 1.36 -87.3 0 0 99.84 111.74
  L 99.79 108.00
  Z
  M 272.71 95.75
  Q 272.93 95.03 272.29 94.75
  Q 271.27 94.07 270.00 94.04
  Q 263.99 93.40 272.96 93.19
  A 1.79 1.78 16.3 0 0 274.37 92.42
  Q 278.72 86.09 275.40 78.89
  Q 275.19 78.42 275.69 78.52
  Q 280.27 79.41 280.98 84.25
  Q 281.57 88.19 279.49 91.47
  Q 279.02 92.20 279.67 91.89
  Q 279.81 91.82 279.91 91.69
  Q 283.45 87.08 281.45 81.52
  Q 280.41 78.62 277.56 77.44
  Q 272.53 75.35 267.16 76.55
  Q 259.89 78.16 260.21 85.75
  Q 260.43 90.68 264.69 93.31
  Q 265.35 93.72 265.29 94.46
  A 0.65 0.55 -1.5 0 1 264.70 94.98
  Q 262.38 95.20 261.25 95.75
  Q 258.74 96.98 259.95 98.59
  Q 260.51 99.33 261.96 99.84
  Q 263.09 100.23 264.22 100.64
  A 1.01 1.01 -88.9 0 1 264.84 101.29
  Q 265.85 104.55 265.52 108.00
  Q 265.04 112.95 260.42 114.08
  A 0.82 0.62 -6.9 0 0 259.81 114.67
  L 259.45 119.26
  A 1.56 0.52 87.0 0 1 259.20 120.16
  Q 257.76 121.99 255.17 122.96
  Q 253.10 123.74 253.24 126.46
  L 253.48 130.80
  A 2.15 1.77 -85.4 0 0 254.79 132.69
  Q 270.89 137.28 286.87 133.11
  Q 287.00 133.08 287.27 133.07
  Q 287.55 133.06 287.66 132.94
  Q 288.07 132.46 287.30 132.67
  Q 284.40 133.44 281.40 133.72
  Q 281.26 133.73 280.62 133.85
  Q 279.31 134.11 279.80 132.33
  A 0.71 0.70 7.9 0 0 279.12 131.44
  Q 268.19 131.35 257.81 129.77
  Q 257.31 129.69 257.81 129.70
  Q 268.40 130.02 278.93 128.99
  A 0.75 0.73 4.4 0 0 279.58 128.45
  Q 280.44 125.11 278.54 123.01
  Q 277.20 121.55 273.97 121.30
  Q 266.39 120.70 263.25 120.75
  Q 262.68 120.76 262.39 120.65
  Q 261.54 120.34 262.57 120.29
  L 275.51 119.72
  A 0.63 0.62 -86.6 0 0 276.10 119.19
  Q 276.51 116.62 275.93 114.96
  A 0.84 0.77 -4.1 0 0 275.26 114.43
  Q 270.28 113.75 265.25 113.59
  Q 264.39 113.57 265.58 113.43
  Q 267.65 113.20 270.86 113.28
  A 0.63 0.63 0.4 0 0 271.50 112.65
  Q 271.50 110.63 271.50 109.05
  Q 271.50 107.86 272.24 105.62
  Q 272.92 103.55 272.37 101.39
  A 0.94 0.94 82.1 0 0 271.45 100.69
  Q 264.87 100.81 268.26 100.31
  Q 270.12 100.04 272.23 100.00
  A 1.41 1.39 -82.3 0 0 273.54 98.99
  Q 274.29 96.37 272.71 95.75
  Z
  M 153.04 104.50
  L 154.05 108.03
  A 0.68 0.60 2.8 0 0 154.48 108.45
  Q 154.95 108.60 154.66 107.90
  Q 153.96 106.23 153.46 104.50
  Q 152.60 98.45 152.89 92.37
  Q 152.96 90.76 152.79 88.65
  Q 152.65 86.79 152.74 84.91
  Q 152.75 84.73 152.68 84.63
  Q 152.51 84.34 152.33 84.61
  Q 152.25 84.72 152.25 84.91
  Q 152.13 90.71 152.05 96.50
  Q 151.98 100.58 153.04 104.50
  Z
  M 190.96 99.75
  Q 191.61 105.40 193.54 110.75
  Q 196.38 118.24 193.96 110.75
  L 191.71 99.75
  L 191.72 85.75
  Q 191.72 85.34 191.62 85.73
  Q 189.81 92.66 190.96 99.75
  Z
  M 277.81 104.08
  Q 276.59 108.06 279.02 111.34
  A 0.74 0.62 72.1 0 0 279.46 111.62
  Q 280.07 111.71 279.46 111.09
  Q 279.30 110.92 279.23 110.75
  Q 277.53 107.11 278.61 103.23
  A 0.43 0.34 -84.5 0 0 278.26 102.68
  Q 277.92 102.74 277.91 103.27
  Q 277.90 103.80 277.81 104.08
  Z
  M 106.37 103.27
  Q 104.63 107.07 106.56 110.69
  Q 106.93 111.38 107.44 111.59
  Q 108.01 111.83 107.67 111.25
  Q 105.62 107.76 106.53 103.70
  Q 106.89 102.12 106.37 103.27
  Z
  M 113.53 121.25
  Q 110.76 119.72 113.29 121.70
  Q 113.44 121.81 113.63 121.84
  Q 114.96 122.04 113.53 121.25
  Z
  M 160.01 122.30
  Q 159.71 121.95 159.34 121.66
  Q 157.56 120.24 159.03 122.23
  Q 159.48 122.85 160.11 123.30
  Q 162.04 124.67 162.57 124.63
  Q 163.36 124.57 162.37 123.93
  L 160.76 122.90
  Q 160.24 122.56 160.01 122.30
  Z
  M 290.04 128.56
  Q 290.99 122.48 285.24 121.34
  Q 284.59 121.21 285.13 121.57
  L 288.62 123.91
  A 1.70 1.37 19.4 0 1 289.36 125.11
  Q 289.63 131.14 290.04 128.56
  Z
  M 250.19 126.04
  Q 248.39 123.26 247.01 122.23
  Q 246.32 121.72 246.62 122.42
  Q 246.68 122.55 246.80 122.66
  Q 248.71 124.38 249.75 126.63
  Q 250.50 128.26 250.50 130.99
  Q 250.51 133.25 250.52 135.50
  Q 250.53 136.66 251.02 136.07
  A 1.20 0.86 72.2 0 0 251.25 135.36
  L 251.25 129.64
  Q 251.25 127.68 250.19 126.04
  Z
  M 204.88 130.78
  Q 205.54 132.56 205.17 134.45
  Q 205.08 134.93 205.31 134.50
  Q 207.33 130.58 203.69 128.81
  Q 199.91 126.98 198.30 124.96
  A 0.55 0.40 69.8 0 0 198.00 124.76
  Q 197.68 124.70 197.95 125.09
  Q 200.38 128.47 204.22 130.12
  A 1.27 1.10 4.1 0 1 204.88 130.78
  Z"
/>
<path fill="#ffffff" d="
  M 185.04 44.00
  Q 184.89 44.35 184.54 44.25
  Q 182.89 41.99 183.17 45.01
  Q 183.38 47.39 181.31 47.86
  Q 180.95 47.94 181.30 47.98
  Q 184.14 48.29 185.85 50.46
  Q 186.41 51.16 185.52 51.25
  Q 181.88 51.62 178.25 51.80
  Q 173.96 52.01 178.07 52.21
  Q 182.91 52.45 187.70 53.23
  A 0.33 0.32 -68.6 0 1 187.91 53.73
  Q 183.74 60.25 185.84 68.34
  A 0.92 0.91 -9.1 0 1 185.01 69.48
  Q 179.86 69.81 174.97 70.30
  Q 174.79 70.32 174.68 70.40
  Q 174.45 70.57 174.64 70.70
  Q 174.72 70.75 174.88 70.75
  Q 180.33 70.64 185.76 71.20
  Q 185.83 71.21 186.74 71.21
  Q 188.00 71.23 188.17 72.44
  A 0.51 0.47 -5.6 0 1 187.70 72.97
  Q 178.32 73.66 172.00 73.75
  Q 171.71 73.75 171.54 73.86
  Q 171.07 74.16 171.72 74.20
  L 188.53 75.06
  A 1.06 1.03 85.6 0 1 189.49 75.91
  Q 190.04 78.72 188.89 79.48
  Q 188.62 79.67 186.07 79.86
  Q 180.47 80.29 174.87 80.55
  Q 174.34 80.57 174.59 80.86
  Q 174.69 80.99 175.00 81.00
  Q 180.63 81.25 186.98 81.82
  A 0.66 0.66 14.3 0 1 187.53 82.74
  Q 186.17 85.84 185.75 89.75
  Q 185.03 96.39 187.20 108.22
  A 0.59 0.37 71.6 0 1 187.07 108.74
  Q 186.85 108.89 186.71 108.31
  Q 185.81 104.74 184.81 101.17
  Q 184.18 98.93 184.31 101.25
  L 185.14 115.74
  A 0.92 0.89 86.9 0 1 184.29 116.72
  Q 179.08 116.93 174.61 117.23
  Q 174.28 117.25 173.87 117.22
  Q 172.00 117.07 173.01 117.63
  Q 173.23 117.75 173.52 117.76
  Q 179.72 117.99 185.92 118.22
  Q 185.99 118.22 187.58 118.18
  Q 190.63 118.09 190.05 121.20
  A 0.65 0.63 3.3 0 1 189.45 121.72
  L 171.54 122.94
  Q 168.66 123.13 171.54 123.31
  L 188.81 124.40
  A 0.72 0.69 83.4 0 1 189.44 124.92
  Q 190.45 128.38 193.06 131.69
  Q 194.51 133.52 193.24 135.30
  A 1.20 1.01 11.0 0 1 192.44 135.74
  Q 178.03 137.17 163.57 136.46
  Q 163.06 136.44 163.56 136.51
  Q 178.34 138.51 193.25 138.50
  A 0.79 0.73 -10.7 0 1 193.96 138.95
  Q 194.63 140.54 194.13 142.09
  A 0.92 0.91 4.6 0 0 195.14 143.27
  L 198.75 142.71
  Q 199.16 142.69 199.25 142.96
  Q 190.29 144.50 181.25 144.28
  Q 174.11 144.10 170.76 143.78
  Q 165.66 143.30 160.42 141.75
  Q 158.59 141.21 159.40 139.38
  L 160.58 136.72
  A 0.92 0.75 41.1 0 0 160.43 135.86
  Q 158.56 133.43 159.74 131.06
  Q 160.29 129.97 162.52 128.84
  Q 165.54 127.30 167.50 124.35
  A 1.23 1.22 43.6 0 0 167.46 122.95
  Q 164.17 118.48 169.20 117.29
  A 0.91 0.87 1.4 0 0 169.84 116.71
  Q 171.85 110.56 173.32 104.27
  Q 176.01 92.73 172.70 81.41
  A 0.79 0.73 -3.1 0 0 172.06 80.88
  Q 170.85 80.72 169.70 80.36
  Q 168.45 79.96 167.81 78.99
  Q 165.92 76.18 169.19 74.19
  Q 170.04 73.67 170.09 72.82
  A 1.35 0.39 89.3 0 1 170.34 71.90
  L 171.77 70.47
  Q 172.25 69.99 172.34 69.71
  Q 174.05 64.09 172.75 58.29
  Q 173.15 58.20 173.46 58.50
  Q 174.12 62.59 174.24 66.73
  Q 174.25 67.02 174.37 67.24
  Q 174.93 68.25 174.78 66.38
  Q 174.75 66.00 174.79 65.63
  Q 175.15 61.71 173.96 58.00
  Q 173.67 56.78 172.54 56.25
  L 171.06 53.17
  Q 170.19 51.37 172.17 51.91
  Q 174.22 52.47 175.05 51.29
  Q 175.65 50.45 175.69 50.41
  Q 177.38 48.69 179.75 48.11
  A 0.36 0.35 -23.0 0 0 179.97 47.58
  Q 176.71 42.52 183.25 42.50
  Q 184.51 42.50 185.04 44.00
  Z
  M 181.69 58.69
  Q 179.97 63.27 182.69 67.32
  Q 183.37 68.33 183.44 67.10
  L 184.01 55.94
  Q 184.04 55.41 183.64 55.71
  Q 182.49 56.56 181.69 58.69
  Z
  M 175.92 96.19
  Q 175.53 103.58 173.75 110.76
  Q 173.34 112.41 174.09 110.88
  Q 179.73 99.37 176.06 86.71
  A 0.55 0.38 87.9 0 0 175.81 86.38
  Q 175.53 86.25 175.69 86.81
  Q 176.30 88.99 175.92 96.19
  Z
  M 181.44 130.98
  L 164.50 130.32
  A 0.56 0.43 20.7 0 0 164.14 130.43
  Q 163.92 130.62 164.26 130.71
  Q 173.06 133.16 181.49 131.67
  Q 184.67 131.10 181.44 130.98
  Z"
/>
<path fill="#b5b6ae" d="
  M 185.04 44.00
  Q 186.01 45.76 184.69 47.10
  Q 184.43 47.37 184.44 46.96
  L 184.54 44.25
  Q 184.89 44.35 185.04 44.00
  Z"
/>
<path fill="#ffffff" d="
  M 192.71 58.00
  L 192.04 58.00
  Q 192.27 56.55 193.44 53.44
  Q 193.58 53.07 193.76 53.09
  A 0.36 0.22 -77.9 0 1 193.91 53.52
  L 192.71 58.00
  Z"
/>
<path fill="#040503" d="
  M 181.69 58.69
  Q 182.49 56.56 183.64 55.71
  Q 184.04 55.41 184.01 55.94
  L 183.44 67.10
  Q 183.37 68.33 182.69 67.32
  Q 179.97 63.27 181.69 58.69
  Z"
/>
<path fill="#606c6d" d="
  M 172.54 56.25
  Q 173.67 56.78 173.96 58.00
  Q 173.42 57.92 173.46 58.50
  Q 173.15 58.20 172.75 58.29
  Q 171.81 57.40 172.54 56.25
  Z"
/>
<path fill="#ffffff" d="
  M 243.29 108.00
  Q 243.14 108.35 242.79 108.25
  Q 241.55 101.79 242.66 95.44
  Q 243.15 92.63 245.17 87.92
  Q 247.32 82.88 247.94 80.44
  Q 252.05 64.15 236.55 59.08
  Q 235.29 58.67 237.31 60.68
  Q 237.81 61.17 238.47 61.40
  Q 240.88 62.23 241.40 64.26
  A 1.42 1.19 13.5 0 0 241.94 64.99
  Q 242.74 65.52 243.81 66.94
  Q 245.06 68.58 242.88 69.02
  Q 242.04 69.20 242.86 69.46
  Q 245.80 70.42 245.18 72.53
  A 0.81 0.71 4.4 0 1 244.50 73.04
  Q 240.69 73.42 244.45 74.43
  A 1.03 0.88 1.4 0 1 245.12 75.03
  Q 245.82 77.11 243.43 77.64
  Q 240.56 78.26 243.57 78.85
  A 0.68 0.62 4.4 0 1 244.12 79.43
  Q 244.28 82.06 241.32 82.22
  Q 239.96 82.29 241.00 82.59
  Q 243.23 83.23 240.72 85.98
  A 1.78 1.78 18.5 0 1 239.55 86.56
  Q 236.18 86.86 239.19 87.68
  A 0.55 0.50 14.6 0 1 239.59 88.30
  Q 239.20 89.86 237.89 90.76
  Q 237.55 90.99 237.04 91.01
  Q 234.28 91.12 236.72 92.13
  A 0.75 0.70 13.1 0 1 237.19 92.82
  Q 237.08 95.29 234.45 95.76
  Q 232.25 96.15 234.26 96.39
  Q 236.48 96.65 235.40 98.97
  A 1.23 1.23 -87.0 0 1 234.69 99.61
  Q 231.40 100.70 234.09 101.24
  A 0.93 0.92 -3.4 0 1 234.77 101.84
  Q 235.72 104.56 232.95 104.48
  Q 231.68 104.45 232.82 105.01
  Q 236.19 106.67 234.77 108.56
  A 1.39 1.04 9.1 0 1 233.94 109.00
  Q 229.90 109.54 234.44 110.24
  A 0.96 0.78 -3.7 0 1 235.16 110.75
  Q 235.33 111.23 235.31 111.76
  Q 235.29 112.27 235.40 112.72
  Q 235.77 114.25 234.07 114.13
  Q 232.77 114.03 232.41 114.06
  Q 223.72 114.64 215.01 114.57
  A 0.27 0.17 2.6 0 0 214.74 114.73
  Q 214.73 114.89 215.00 114.90
  Q 225.01 115.30 235.00 115.97
  A 0.72 0.57 -0.5 0 1 235.65 116.48
  L 235.97 119.19
  A 0.56 0.47 -4.5 0 1 235.43 119.72
  L 217.32 120.67
  Q 216.80 120.70 217.32 120.73
  L 236.69 121.79
  A 1.24 1.09 -16.2 0 1 237.52 122.18
  Q 241.42 126.52 240.75 132.44
  A 0.62 0.60 0.5 0 1 240.18 132.98
  Q 225.15 134.34 210.07 133.95
  Q 209.56 133.94 210.05 134.01
  Q 224.59 135.96 239.89 135.74
  A 1.10 1.10 9.3 0 1 240.94 137.20
  Q 240.28 139.07 241.31 139.78
  A 1.29 0.77 -25.9 0 0 242.24 139.86
  Q 243.70 139.48 245.20 139.63
  Q 245.74 139.68 245.19 139.78
  Q 227.18 143.13 210.03 139.42
  Q 207.06 138.78 207.83 135.84
  Q 208.93 131.66 207.23 128.19
  A 0.98 0.93 47.1 0 1 207.24 127.30
  Q 209.37 123.50 212.78 121.43
  Q 214.59 120.34 213.51 118.51
  Q 210.86 114.05 209.75 109.00
  Q 209.04 105.75 211.00 102.50
  Q 213.31 98.68 218.41 93.66
  Q 222.84 89.31 226.11 83.64
  A 0.85 0.84 16.6 0 1 226.89 83.22
  Q 234.17 83.61 229.79 81.65
  Q 228.18 80.93 229.95 80.94
  Q 235.88 80.95 238.92 76.47
  Q 239.20 76.06 238.76 76.32
  Q 233.65 79.38 227.72 78.12
  Q 221.47 76.80 215.50 80.19
  A 1.07 1.07 60.9 0 1 214.04 79.77
  Q 212.61 77.18 214.94 76.75
  Q 215.87 76.58 215.93 76.56
  Q 219.12 75.67 216.65 73.79
  A 1.65 0.87 -11.4 0 0 215.76 73.53
  L 210.49 73.32
  A 0.73 0.65 83.4 0 1 209.87 72.77
  Q 208.75 68.17 211.98 66.39
  Q 213.04 65.81 217.67 65.34
  Q 222.36 64.86 227.25 62.96
  Q 228.81 62.35 229.45 60.81
  Q 230.18 59.06 231.94 57.40
  A 1.03 1.00 27.4 0 1 232.80 57.14
  Q 242.18 58.71 247.44 65.06
  Q 250.46 68.72 250.00 74.75
  Q 249.47 81.66 246.37 87.84
  Q 241.60 97.35 243.29 108.00
  Z
  M 230.3975 62.7213
  A 2.15 0.40 122.1 0 0 231.8788 61.1126
  A 2.15 0.40 122.1 0 0 232.6825 59.0787
  A 2.15 0.40 122.1 0 0 231.2012 60.6874
  A 2.15 0.40 122.1 0 0 230.3975 62.7213
  Z
  M 239.59 63.35
  Q 236.98 61.87 234.66 62.84
  Q 232.68 63.67 234.83 63.74
  Q 240.47 63.90 237.85 67.78
  Q 237.54 68.24 238.04 68.06
  Q 239.36 67.55 240.30 65.64
  A 1.74 1.73 27.9 0 0 239.59 63.35
  Z
  M 227.48 75.81
  Q 224.37 74.67 221.34 76.13
  Q 220.09 76.73 221.41 76.53
  Q 224.76 76.02 228.09 76.66
  A 1.12 0.88 29.6 0 0 228.88 76.54
  Q 229.64 76.05 228.17 75.96
  Q 227.82 75.93 227.48 75.81
  Z
  M 232.69 86.92
  Q 230.16 92.16 227.06 97.06
  Q 223.43 102.82 225.56 110.71
  Q 225.69 111.20 225.73 110.69
  Q 226.04 107.22 226.25 103.75
  Q 226.42 100.96 229.05 96.85
  Q 232.12 92.07 233.13 87.07
  Q 233.50 85.26 232.69 86.92
  Z
  M 215.69 110.59
  Q 215.86 109.81 215.75 109.00
  Q 215.20 104.78 217.96 101.70
  Q 220.85 98.48 223.76 95.26
  Q 227.01 91.67 228.31 87.04
  Q 228.45 86.55 228.15 86.97
  Q 223.73 93.22 218.49 98.80
  Q 215.79 101.69 215.13 103.97
  Q 213.97 108.00 215.34 112.27
  Q 215.53 112.87 215.72 112.31
  Q 215.85 111.92 215.75 111.52
  Q 215.61 110.96 215.69 110.59
  Z
  M 230.4600 118.5721
  A 0.31 0.31 0.0 0 0 230.1505 118.2615
  L 216.9306 118.2385
  A 0.31 0.31 0.0 0 0 216.6200 118.5479
  L 216.6200 118.5679
  A 0.31 0.31 0.0 0 0 216.9295 118.8785
  L 230.1494 118.9015
  A 0.31 0.31 0.0 0 0 230.4600 118.5921
  L 230.4600 118.5721
  Z
  M 231.56 129.00
  Q 220.74 128.58 209.92 128.32
  Q 209.80 128.31 209.72 128.36
  Q 209.62 128.41 209.53 128.48
  Q 209.26 128.68 209.62 128.76
  Q 221.61 131.52 233.78 129.73
  Q 235.53 129.47 233.97 129.23
  Q 232.78 129.05 231.56 129.00
  Z"
/>
<path fill="#040503" d="
  M 173.96 58.00
  Q 175.15 61.71 174.79 65.63
  Q 174.75 66.00 174.78 66.38
  Q 174.93 68.25 174.37 67.24
  Q 174.25 67.02 174.24 66.73
  Q 174.12 62.59 173.46 58.50
  Q 173.42 57.92 173.96 58.00
  Z"
/>
<path fill="#b5b6ae" d="
  M 192.04 58.00
  L 192.71 58.00
  Q 192.01 62.27 192.72 66.55
  Q 192.75 66.76 192.72 66.96
  Q 192.54 68.21 192.12 66.72
  Q 190.88 62.37 192.04 58.00
  Z"
/>
<ellipse fill="#040503" cx="0.00" cy="0.00" transform="translate(231.54,60.90) rotate(122.1)" rx="2.15" ry="0.40"/>
<path fill="#040503" d="
  M 239.59 63.35
  A 1.74 1.73 27.9 0 1 240.30 65.64
  Q 239.36 67.55 238.04 68.06
  Q 237.54 68.24 237.85 67.78
  Q 240.47 63.90 234.83 63.74
  Q 232.68 63.67 234.66 62.84
  Q 236.98 61.87 239.59 63.35
  Z"
/>
<path fill="#ffffff" d="
  M 154.79 68.25
  Q 154.64 68.60 154.29 68.50
  Q 154.84 64.97 151.50 64.73
  Q 149.73 64.60 147.70 65.07
  A 0.64 0.54 83.9 0 0 147.28 65.69
  L 147.38 71.81
  A 0.61 0.52 -2.2 0 1 146.80 72.34
  L 128.75 73.29
  Q 122.58 73.61 129.25 73.71
  Q 137.70 74.28 146.17 74.49
  Q 146.84 74.50 147.31 74.65
  Q 149.18 75.22 147.51 76.03
  Q 147.06 76.25 146.45 76.26
  Q 138.20 76.40 130.00 77.29
  Q 125.58 77.57 130.00 77.71
  L 145.94 78.52
  A 0.44 0.42 -82.6 0 1 146.33 79.05
  Q 143.71 91.61 145.33 104.34
  Q 145.42 105.10 145.23 104.30
  Q 143.59 97.61 142.83 90.77
  Q 142.78 90.27 142.71 90.94
  Q 141.68 100.35 142.82 110.40
  A 0.52 0.51 85.4 0 1 142.33 110.98
  Q 134.88 111.26 128.00 111.36
  Q 125.53 111.39 127.24 111.92
  Q 127.48 112.00 127.77 112.01
  Q 137.61 112.43 147.44 113.03
  A 0.78 0.76 -8.0 0 1 148.12 113.53
  Q 149.11 116.22 148.65 119.08
  A 0.62 0.62 3.4 0 1 148.06 119.60
  L 125.03 120.32
  Q 124.24 120.34 124.62 120.77
  Q 124.78 120.95 125.24 120.97
  Q 136.74 121.47 148.24 121.98
  A 1.37 1.19 -18.4 0 1 149.11 122.34
  Q 149.51 122.72 149.85 123.14
  Q 150.19 123.54 150.62 123.88
  Q 153.80 126.37 153.09 130.52
  A 0.66 0.64 1.6 0 1 152.51 131.05
  Q 136.52 132.74 120.44 132.45
  Q 119.94 132.44 120.44 132.49
  Q 136.63 134.28 152.24 134.07
  A 0.89 0.88 5.3 0 1 153.12 135.12
  Q 152.43 138.67 155.04 137.90
  Q 157.12 137.29 156.04 137.93
  Q 155.82 138.06 155.56 138.11
  Q 135.72 141.74 116.30 136.57
  A 0.80 0.79 2.5 0 1 115.72 135.95
  Q 115.41 134.09 115.43 132.20
  Q 115.43 132.02 115.36 129.31
  Q 115.26 125.72 117.93 123.64
  Q 120.71 121.47 120.73 121.44
  Q 122.05 119.64 121.75 116.75
  Q 121.43 113.70 123.87 111.57
  A 1.97 1.54 -18.2 0 0 124.40 110.78
  Q 126.51 103.93 126.59 96.75
  Q 126.69 87.99 125.91 78.17
  A 1.85 1.84 8.5 0 0 124.74 76.60
  Q 121.94 75.53 123.35 73.80
  A 1.56 1.08 -33.2 0 0 123.70 72.93
  L 123.74 66.15
  A 1.67 1.63 89.5 0 1 125.33 64.49
  Q 137.65 64.22 150.25 64.08
  Q 152.56 64.05 153.50 64.69
  Q 155.09 65.76 154.79 68.25
  Z
  M 144.89 66.78
  Q 143.86 69.17 145.20 71.10
  Q 145.50 71.54 145.66 71.02
  Q 146.21 69.19 145.92 67.26
  Q 145.60 65.15 144.89 66.78
  Z
  M 125.5263 71.2399
  A 2.51 0.50 89.4 0 0 126.0000 68.7248
  A 2.51 0.50 89.4 0 0 125.4737 66.2201
  A 2.51 0.50 89.4 0 0 125.0000 68.7352
  A 2.51 0.50 89.4 0 0 125.5263 71.2399
  Z
  M 128.63 91.43
  Q 128.29 97.71 128.25 103.94
  Q 128.24 105.77 128.75 104.01
  Q 131.52 94.44 129.29 84.92
  Q 128.71 82.46 128.75 84.99
  Q 128.80 88.22 128.63 91.43
  Z
  M 142.79 128.33
  Q 130.68 127.32 120.07 127.50
  Q 117.12 127.55 120.01 128.13
  Q 130.21 130.15 142.79 128.59
  Q 144.04 128.44 142.79 128.33
  Z"
/>
<path fill="#040503" d="
  M 144.89 66.78
  Q 145.60 65.15 145.92 67.26
  Q 146.21 69.19 145.66 71.02
  Q 145.50 71.54 145.20 71.10
  Q 143.86 69.17 144.89 66.78
  Z"
/>
<ellipse fill="#040503" cx="0.00" cy="0.00" transform="translate(125.50,68.73) rotate(89.4)" rx="2.51" ry="0.50"/>
<path fill="#606c6d" d="
  M 154.79 68.25
  Q 154.90 75.67 154.29 68.50
  Q 154.64 68.60 154.79 68.25
  Z"
/>
<path fill="#606c6d" d="
  M 128.75 73.29
  L 129.25 73.71
  Q 122.58 73.61 128.75 73.29
  Z"
/>
<path fill="#040503" d="
  M 228.17 75.96
  Q 229.64 76.05 228.88 76.54
  A 1.12 0.88 29.6 0 1 228.09 76.66
  Q 224.76 76.02 221.41 76.53
  Q 220.09 76.73 221.34 76.13
  Q 224.37 74.67 227.48 75.81
  Q 227.82 75.93 228.17 75.96
  Z"
/>
<path fill="#ffffff" d="
  M 98.00 94.04
  L 97.75 94.96
  Q 95.62 94.80 95.85 95.32
  A 1.05 0.54 -2.4 0 0 96.70 95.71
  L 101.00 95.96
  Q 102.54 97.33 101.67 99.25
  A 0.98 0.88 6.3 0 1 100.95 99.77
  Q 98.68 100.16 96.39 100.24
  Q 95.97 100.25 95.63 100.35
  Q 93.69 100.93 97.00 100.77
  Q 98.65 100.69 100.21 101.16
  A 0.68 0.60 -81.7 0 1 100.64 101.82
  L 100.46 106.50
  Q 98.78 106.55 99.79 108.00
  L 99.84 111.74
  A 1.55 1.36 -87.3 0 1 98.32 113.32
  Q 95.65 112.99 93.55 113.55
  Q 93.09 113.67 93.57 113.70
  L 103.31 114.38
  A 0.81 0.80 81.9 0 1 104.00 114.90
  Q 104.81 117.00 104.31 119.21
  A 0.69 0.65 4.4 0 1 103.69 119.71
  L 90.81 120.41
  Q 90.29 120.44 90.80 120.48
  Q 96.24 120.92 101.69 121.32
  Q 105.15 121.57 106.42 122.84
  Q 108.33 124.75 107.68 128.40
  A 0.70 0.69 1.6 0 1 107.07 128.97
  Q 97.15 129.99 87.48 129.75
  Q 84.42 129.67 87.46 130.06
  Q 97.21 131.32 107.07 131.43
  A 0.49 0.47 -88.2 0 1 107.53 131.94
  Q 107.42 134.98 110.35 133.66
  Q 110.59 133.56 110.79 133.53
  Q 111.92 133.39 111.22 133.94
  Q 111.07 134.06 110.87 134.10
  Q 96.76 136.67 83.00 132.75
  Q 82.12 132.50 81.50 129.25
  Q 80.37 123.36 85.45 121.68
  Q 88.10 120.81 87.56 118.07
  Q 86.74 113.86 90.19 113.47
  A 1.40 1.10 12.4 0 0 91.02 113.07
  Q 95.73 107.76 92.71 100.96
  A 0.87 0.79 -8.2 0 0 92.00 100.48
  Q 89.38 100.27 87.81 98.19
  Q 86.46 96.39 89.25 95.75
  L 92.66 94.97
  Q 94.62 94.53 92.94 93.51
  Q 90.08 91.79 88.99 88.79
  Q 87.06 83.51 89.87 79.94
  Q 91.94 77.32 96.00 76.51
  Q 99.59 75.79 103.33 76.60
  Q 110.39 78.12 110.18 85.50
  Q 110.08 89.26 108.44 91.19
  Q 106.47 93.51 107.96 90.73
  Q 110.00 86.93 108.69 82.77
  Q 107.79 79.88 103.82 78.27
  Q 103.34 78.07 103.51 78.56
  Q 106.04 85.93 103.05 91.71
  A 2.68 2.38 9.3 0 1 100.98 93.02
  L 95.56 93.49
  Q 94.92 93.55 95.55 93.65
  L 98.00 94.04
  Z
  M 91.28 80.45
  Q 88.29 85.40 90.98 90.53
  Q 91.07 90.70 91.22 90.80
  Q 91.98 91.33 91.58 90.43
  Q 89.18 85.06 92.06 80.07
  A 0.34 0.28 -67.9 0 0 91.91 79.59
  Q 91.63 79.54 91.50 79.89
  Q 91.36 80.32 91.28 80.45
  Z
  M 101.52 90.80
  Q 101.50 91.25 101.72 90.86
  Q 104.30 86.35 102.36 81.01
  Q 101.95 79.91 101.91 81.01
  Q 101.80 83.72 101.52 90.80
  Z
  M 95.82 125.36
  Q 90.41 125.01 85.70 125.22
  Q 83.81 125.30 85.65 125.73
  Q 93.67 127.58 101.67 126.11
  Q 103.68 125.74 101.74 125.67
  Q 98.78 125.55 95.82 125.36
  Z"
/>
<path fill="#ffffff" d="
  M 270.00 94.04
  Q 270.08 94.57 269.75 94.96
  L 268.04 95.14
  Q 267.17 95.23 268.04 95.44
  Q 270.34 96.01 272.71 95.75
  Q 274.29 96.37 273.54 98.99
  A 1.41 1.39 -82.3 0 1 272.23 100.00
  Q 270.12 100.04 268.26 100.31
  Q 264.87 100.81 271.45 100.69
  A 0.94 0.94 82.1 0 1 272.37 101.39
  Q 272.92 103.55 272.24 105.62
  Q 271.50 107.86 271.50 109.05
  Q 271.50 110.63 271.50 112.65
  A 0.63 0.63 0.4 0 1 270.86 113.28
  Q 267.65 113.20 265.58 113.43
  Q 264.39 113.57 265.25 113.59
  Q 270.28 113.75 275.26 114.43
  A 0.84 0.77 -4.1 0 1 275.93 114.96
  Q 276.51 116.62 276.10 119.19
  A 0.63 0.62 -86.6 0 1 275.51 119.72
  L 262.57 120.29
  Q 261.54 120.34 262.39 120.65
  Q 262.68 120.76 263.25 120.75
  Q 266.39 120.70 273.97 121.30
  Q 277.20 121.55 278.54 123.01
  Q 280.44 125.11 279.58 128.45
  A 0.75 0.73 4.4 0 1 278.93 128.99
  Q 268.40 130.02 257.81 129.70
  Q 257.31 129.69 257.81 129.77
  Q 268.19 131.35 279.12 131.44
  A 0.71 0.70 7.9 0 1 279.80 132.33
  Q 279.31 134.11 280.62 133.85
  Q 281.26 133.73 281.40 133.72
  Q 284.40 133.44 287.30 132.67
  Q 288.07 132.46 287.66 132.94
  Q 287.55 133.06 287.27 133.07
  Q 287.00 133.08 286.87 133.11
  Q 270.89 137.28 254.79 132.69
  A 2.15 1.77 -85.4 0 1 253.48 130.80
  L 253.24 126.46
  Q 253.10 123.74 255.17 122.96
  Q 257.76 121.99 259.20 120.16
  A 1.56 0.52 87.0 0 0 259.45 119.26
  L 259.81 114.67
  A 0.82 0.62 -6.9 0 1 260.42 114.08
  Q 265.04 112.95 265.52 108.00
  Q 265.85 104.55 264.84 101.29
  A 1.01 1.01 -88.9 0 0 264.22 100.64
  Q 263.09 100.23 261.96 99.84
  Q 260.51 99.33 259.95 98.59
  Q 258.74 96.98 261.25 95.75
  Q 262.38 95.20 264.70 94.98
  A 0.65 0.55 -1.5 0 0 265.29 94.46
  Q 265.35 93.72 264.69 93.31
  Q 260.43 90.68 260.21 85.75
  Q 259.89 78.16 267.16 76.55
  Q 272.53 75.35 277.56 77.44
  Q 280.41 78.62 281.45 81.52
  Q 283.45 87.08 279.91 91.69
  Q 279.81 91.82 279.67 91.89
  Q 279.02 92.20 279.49 91.47
  Q 281.57 88.19 280.98 84.25
  Q 280.27 79.41 275.69 78.52
  Q 275.19 78.42 275.40 78.89
  Q 278.72 86.09 274.37 92.42
  A 1.79 1.78 16.3 0 1 272.96 93.19
  Q 263.99 93.40 270.00 94.04
  Z
  M 262.92 81.11
  Q 259.93 86.06 263.15 90.78
  Q 263.43 91.20 263.27 90.72
  Q 261.32 85.17 263.95 80.00
  Q 264.25 79.41 263.70 79.69
  Q 263.39 79.85 263.26 80.20
  Q 262.96 81.04 262.92 81.11
  Z
  M 273.65 85.01
  Q 273.29 87.80 273.31 90.65
  Q 273.32 91.64 273.73 90.74
  Q 275.98 85.83 274.28 80.87
  Q 273.75 79.33 273.75 83.41
  Q 273.75 84.22 273.65 85.01
  Z
  M 268.31 125.44
  Q 262.66 124.94 257.01 125.45
  Q 256.48 125.50 256.98 125.62
  Q 265.56 127.74 274.22 125.87
  Q 274.72 125.77 274.37 125.56
  Q 274.26 125.50 274.13 125.50
  Q 269.78 125.57 268.31 125.44
  Z"
/>
<path fill="#606c6d" d="
  M 130.00 77.29
  L 130.00 77.71
  Q 125.58 77.57 130.00 77.29
  Z"
/>
<path fill="#040503" d="
  M 91.50 79.89
  Q 91.63 79.54 91.91 79.59
  A 0.34 0.28 -67.9 0 1 92.06 80.07
  Q 89.18 85.06 91.58 90.43
  Q 91.98 91.33 91.22 90.80
  Q 91.07 90.70 90.98 90.53
  Q 88.29 85.40 91.28 80.45
  Q 91.36 80.32 91.50 79.89
  Z"
/>
<path fill="#040503" d="
  M 263.26 80.20
  Q 263.39 79.85 263.70 79.69
  Q 264.25 79.41 263.95 80.00
  Q 261.32 85.17 263.27 90.72
  Q 263.43 91.20 263.15 90.78
  Q 259.93 86.06 262.92 81.11
  Q 262.96 81.04 263.26 80.20
  Z"
/>
<path fill="#040503" d="
  M 273.65 85.01
  Q 273.75 84.22 273.75 83.41
  Q 273.75 79.33 274.28 80.87
  Q 275.98 85.83 273.73 90.74
  Q 273.32 91.64 273.31 90.65
  Q 273.29 87.80 273.65 85.01
  Z"
/>
<path fill="#040503" d="
  M 101.52 90.80
  Q 101.80 83.72 101.91 81.01
  Q 101.95 79.91 102.36 81.01
  Q 104.30 86.35 101.72 90.86
  Q 101.50 91.25 101.52 90.80
  Z"
/>
<path fill="#040503" d="
  M 128.63 91.43
  Q 128.80 88.22 128.75 84.99
  Q 128.71 82.46 129.29 84.92
  Q 131.52 94.44 128.75 104.01
  Q 128.24 105.77 128.25 103.94
  Q 128.29 97.71 128.63 91.43
  Z"
/>
<path fill="#ffffff" d="
  M 153.46 104.50
  L 153.04 104.50
  Q 151.98 100.58 152.05 96.50
  Q 152.13 90.71 152.25 84.91
  Q 152.25 84.72 152.33 84.61
  Q 152.51 84.34 152.68 84.63
  Q 152.75 84.73 152.74 84.91
  Q 152.65 86.79 152.79 88.65
  Q 152.96 90.76 152.89 92.37
  Q 152.60 98.45 153.46 104.50
  Z"
/>
<path fill="#b5b6ae" d="
  M 191.71 99.75
  Q 191.40 98.44 190.96 99.75
  Q 189.81 92.66 191.62 85.73
  Q 191.72 85.34 191.72 85.75
  L 191.71 99.75
  Z"
/>
<path fill="#040503" d="
  M 175.92 96.19
  Q 176.30 88.99 175.69 86.81
  Q 175.53 86.25 175.81 86.38
  A 0.55 0.38 87.9 0 1 176.06 86.71
  Q 179.73 99.37 174.09 110.88
  Q 173.34 112.41 173.75 110.76
  Q 175.53 103.58 175.92 96.19
  Z"
/>
<path fill="#040503" d="
  M 232.69 86.92
  Q 233.50 85.26 233.13 87.07
  Q 232.12 92.07 229.05 96.85
  Q 226.42 100.96 226.25 103.75
  Q 226.04 107.22 225.73 110.69
  Q 225.69 111.20 225.56 110.71
  Q 223.43 102.82 227.06 97.06
  Q 230.16 92.16 232.69 86.92
  Z"
/>
<path fill="#040503" d="
  M 215.75 111.52
  Q 215.85 111.92 215.72 112.31
  Q 215.53 112.87 215.34 112.27
  Q 213.97 108.00 215.13 103.97
  Q 215.79 101.69 218.49 98.80
  Q 223.73 93.22 228.15 86.97
  Q 228.45 86.55 228.31 87.04
  Q 227.01 91.67 223.76 95.26
  Q 220.85 98.48 217.96 101.70
  Q 215.20 104.78 215.75 109.00
  Q 215.86 109.81 215.69 110.59
  Q 215.61 110.96 215.75 111.52
  Z"
/>
<path fill="#b5b6ae" d="
  M 98.00 94.04
  Q 99.30 94.00 100.29 94.75
  Q 99.06 95.22 97.75 94.96
  L 98.00 94.04
  Z"
/>
<path fill="#b5b6ae" d="
  M 270.00 94.04
  Q 271.27 94.07 272.29 94.75
  Q 271.06 95.22 269.75 94.96
  Q 270.08 94.57 270.00 94.04
  Z"
/>
<path fill="#606c6d" d="
  M 100.29 94.75
  Q 101.14 95.02 101.00 95.96
  L 96.70 95.71
  A 1.05 0.54 -2.4 0 1 95.85 95.32
  Q 95.62 94.80 97.75 94.96
  Q 99.06 95.22 100.29 94.75
  Z"
/>
<path fill="#606c6d" d="
  M 272.29 94.75
  Q 272.93 95.03 272.71 95.75
  Q 270.34 96.01 268.04 95.44
  Q 267.17 95.23 268.04 95.14
  L 269.75 94.96
  Q 271.06 95.22 272.29 94.75
  Z"
/>
<path fill="#ffffff" d="
  M 191.71 99.75
  L 193.96 110.75
  L 193.54 110.75
  Q 191.61 105.40 190.96 99.75
  Q 191.40 98.44 191.71 99.75
  Z"
/>
<path fill="#ffffff" d="
  M 277.91 103.27
  Q 277.92 102.74 278.26 102.68
  A 0.43 0.34 -84.5 0 1 278.61 103.23
  Q 277.53 107.11 279.23 110.75
  Q 279.30 110.92 279.46 111.09
  Q 280.07 111.71 279.46 111.62
  A 0.74 0.62 72.1 0 1 279.02 111.34
  Q 276.59 108.06 277.81 104.08
  Q 277.90 103.80 277.91 103.27
  Z"
/>
<path fill="#b5b6ae" d="
  M 106.37 103.27
  Q 106.89 102.12 106.53 103.70
  Q 105.62 107.76 107.67 111.25
  Q 108.01 111.83 107.44 111.59
  Q 106.93 111.38 106.56 110.69
  Q 104.63 107.07 106.37 103.27
  Z"
/>
<path fill="#b5b6ae" d="
  M 153.04 104.50
  L 153.46 104.50
  Q 153.96 106.23 154.66 107.90
  Q 154.95 108.60 154.48 108.45
  A 0.68 0.60 2.8 0 1 154.05 108.03
  L 153.04 104.50
  Z"
/>
<path fill="#606c6d" d="
  M 100.46 106.50
  Q 100.90 107.71 99.79 108.00
  Q 98.78 106.55 100.46 106.50
  Z"
/>
<path fill="#606c6d" d="
  M 243.29 108.00
  Q 245.44 118.88 242.79 108.25
  Q 243.14 108.35 243.29 108.00
  Z"
/>
<path fill="#606c6d" d="
  M 193.54 110.75
  L 193.96 110.75
  Q 196.38 118.24 193.54 110.75
  Z"
/>
<rect fill="#040503" x="-6.92" y="-0.32" transform="translate(223.54,118.57) rotate(0.1)" width="13.84" height="0.64" rx="0.31"/>
<path fill="#b5b6ae" d="
  M 113.53 121.25
  Q 114.96 122.04 113.63 121.84
  Q 113.44 121.81 113.29 121.70
  Q 110.76 119.72 113.53 121.25
  Z"
/>
<path fill="#ffffff" d="
  M 160.76 122.90
  L 162.37 123.93
  Q 163.36 124.57 162.57 124.63
  Q 162.04 124.67 160.11 123.30
  Q 159.48 122.85 159.03 122.23
  Q 157.56 120.24 159.34 121.66
  Q 159.71 121.95 160.01 122.30
  Q 160.24 122.56 160.76 122.90
  Z"
/>
<path fill="#ffffff" d="
  M 290.04 128.56
  Q 289.63 131.14 289.36 125.11
  A 1.70 1.37 19.4 0 0 288.62 123.91
  L 285.13 121.57
  Q 284.59 121.21 285.24 121.34
  Q 290.99 122.48 290.04 128.56
  Z"
/>
<path fill="#ffffff" d="
  M 250.19 126.04
  Q 251.25 127.68 251.25 129.64
  L 251.25 135.36
  A 1.20 0.86 72.2 0 1 251.02 136.07
  Q 250.53 136.66 250.52 135.50
  Q 250.51 133.25 250.50 130.99
  Q 250.50 128.26 249.75 126.63
  Q 248.71 124.38 246.80 122.66
  Q 246.68 122.55 246.62 122.42
  Q 246.32 121.72 247.01 122.23
  Q 248.39 123.26 250.19 126.04
  Z"
/>
<path fill="#ffffff" d="
  M 204.22 130.12
  Q 200.38 128.47 197.95 125.09
  Q 197.68 124.70 198.00 124.76
  A 0.55 0.40 69.8 0 1 198.30 124.96
  Q 199.91 126.98 203.69 128.81
  Q 207.33 130.58 205.31 134.50
  Q 205.08 134.93 205.17 134.45
  Q 205.54 132.56 204.88 130.78
  A 1.27 1.10 4.1 0 0 204.22 130.12
  Z"
/>
<path fill="#040503" d="
  M 95.82 125.36
  Q 98.78 125.55 101.74 125.67
  Q 103.68 125.74 101.67 126.11
  Q 93.67 127.58 85.65 125.73
  Q 83.81 125.30 85.70 125.22
  Q 90.41 125.01 95.82 125.36
  Z"
/>
<path fill="#040503" d="
  M 268.31 125.44
  Q 269.78 125.57 274.13 125.50
  Q 274.26 125.50 274.37 125.56
  Q 274.72 125.77 274.22 125.87
  Q 265.56 127.74 256.98 125.62
  Q 256.48 125.50 257.01 125.45
  Q 262.66 124.94 268.31 125.44
  Z"
/>
<path fill="#040503" d="
  M 142.79 128.33
  Q 144.04 128.44 142.79 128.59
  Q 130.21 130.15 120.01 128.13
  Q 117.12 127.55 120.07 127.50
  Q 130.68 127.32 142.79 128.33
  Z"
/>
<path fill="#040503" d="
  M 231.56 129.00
  Q 232.78 129.05 233.97 129.23
  Q 235.53 129.47 233.78 129.73
  Q 221.61 131.52 209.62 128.76
  Q 209.26 128.68 209.53 128.48
  Q 209.62 128.41 209.72 128.36
  Q 209.80 128.31 209.92 128.32
  Q 220.74 128.58 231.56 129.00
  Z"
/>
<path fill="#040503" d="
  M 181.44 130.98
  Q 184.67 131.10 181.49 131.67
  Q 173.06 133.16 164.26 130.71
  Q 163.92 130.62 164.14 130.43
  A 0.56 0.43 20.7 0 1 164.50 130.32
  L 181.44 130.98
  Z"
/>
<path fill="#040503" d="
  M 296.21 154.25
  L 284.50 154.29
  Q 186.25 153.07 88.00 154.29
  L 74.75 154.29
  Q 71.50 153.40 71.50 149.25
  Q 71.50 144.37 71.28 139.51
  Q 71.11 135.75 74.28 134.66
  A 1.80 1.78 48.4 0 1 75.65 134.75
  Q 84.84 139.27 92.99 139.70
  Q 101.14 140.13 109.26 139.30
  A 1.14 0.97 60.6 0 1 110.10 139.61
  Q 111.31 140.76 113.25 141.25
  Q 133.54 146.39 153.75 143.57
  A 1.10 1.06 61.1 0 1 154.62 143.84
  Q 158.49 147.23 164.75 148.00
  Q 178.11 149.65 195.50 148.50
  Q 203.20 147.99 208.57 145.00
  A 1.44 1.40 -54.5 0 1 209.50 144.83
  Q 229.58 147.87 248.25 144.50
  Q 252.02 143.82 254.92 140.63
  A 1.37 1.09 70.4 0 0 255.22 139.75
  Q 255.17 137.83 256.78 138.34
  Q 258.10 138.77 258.42 138.82
  Q 270.57 140.57 282.76 139.09
  Q 288.09 138.44 294.32 134.71
  A 1.69 1.66 -53.2 0 1 295.57 134.52
  Q 299.01 135.35 299.03 139.00
  Q 299.08 148.95 298.94 150.94
  Q 298.78 153.21 296.21 154.25
  Z"
/>
<path fill="#b5b6ae" d="
  M 199.25 142.96
  Q 199.16 142.69 198.75 142.71
  Q 203.22 141.98 199.25 142.96
  Z"
/>
<path fill="#ffffff" d="
  M 284.50 154.29
  L 282.50 154.71
  Q 185.13 155.81 87.75 154.71
  L 88.00 154.29
  Q 186.25 153.07 284.50 154.29
  Z"
/>
<path fill="#b5b6ae" d="
  M 74.75 154.29
  L 88.00 154.29
  L 87.75 154.71
  L 74.71 154.50
  L 74.75 154.29
  Z"
/>
<path fill="#606c6d" d="
  M 284.50 154.29
  L 296.21 154.25
  L 296.29 154.50
  L 282.50 154.71
  L 284.50 154.29
  Z"
/>
<path fill="#040503" d="
  M 74.71 154.50
  L 87.75 154.71
  Q 185.13 155.81 282.50 154.71
  L 296.29 154.50
  Q 303.89 154.50 311.48 154.50
  Q 314.33 154.50 315.39 155.17
  Q 317.22 156.31 317.31 159.19
  Q 317.60 167.58 317.29 172.40
  Q 317.19 173.86 316.47 174.75
  Q 315.65 175.75 314.50 176.46
  L 302.50 176.71
  L 302.50 176.50
  A 0.27 0.19 -0.0 0 0 302.23 176.31
  Q 184.08 174.54 65.93 176.31
  A 0.19 0.18 12.3 0 0 65.76 176.41
  L 65.71 176.50
  L 55.75 176.04
  Q 53.20 175.03 53.06 172.69
  Q 52.94 170.71 52.98 163.33
  Q 53.01 158.24 53.14 157.68
  Q 53.81 154.94 56.79 154.52
  Q 56.94 154.50 61.22 154.50
  Q 67.97 154.50 74.71 154.50
  Z"
/>
<path fill="#ffffff" d="
  M 302.50 176.71
  Q 184.13 177.72 65.75 176.71
  L 65.71 176.50
  L 65.76 176.41
  A 0.19 0.18 12.3 0 1 65.93 176.31
  Q 184.08 174.54 302.23 176.31
  A 0.27 0.19 -0.0 0 1 302.50 176.50
  L 302.50 176.71
  Z"
/>
<path fill="#606c6d" d="
  M 55.75 176.04
  L 65.71 176.50
  L 65.75 176.71
  L 54.50 176.46
  L 55.75 176.04
  Z"
/>
<path fill="#040503" d="
  M 54.50 176.46
  L 65.75 176.71
  Q 184.13 177.72 302.50 176.71
  L 314.50 176.46
  L 332.60 176.55
  Q 336.25 176.57 336.25 180.24
  Q 336.25 185.28 336.25 190.31
  Q 336.25 190.36 336.37 192.69
  Q 336.68 198.93 329.75 198.25
  Q 324.76 197.76 296.75 198.49
  A 1.25 1.23 21.6 0 0 295.90 198.85
  Q 242.71 252.04 189.34 305.04
  Q 187.61 306.76 186.06 307.09
  Q 183.61 307.60 182.00 306.00
  Q 110.04 234.34 77.94 202.06
  Q 75.62 199.73 74.15 198.56
  A 1.47 1.42 -24.9 0 0 73.25 198.25
  Q 56.00 198.25 38.75 198.25
  Q 33.92 198.25 34.16 193.43
  Q 34.25 191.69 34.25 191.56
  Q 34.25 186.53 34.25 181.51
  Q 34.25 178.84 35.18 177.73
  Q 36.39 176.29 38.63 176.40
  Q 40.25 176.49 40.38 176.49
  Q 47.44 176.38 54.50 176.46
  Z
  M 102.34 213.41
  L 117.91 229.27
  A 0.86 0.85 -45.0 0 0 119.12 229.26
  L 134.59 213.78
  A 0.85 0.83 -44.8 0 1 135.77 213.77
  L 151.24 229.12
  A 0.91 0.90 44.8 0 0 152.51 229.12
  L 168.19 213.56
  A 0.52 0.50 -45.0 0 0 168.20 212.83
  L 154.00 198.75
  Q 151.80 196.57 149.69 198.69
  L 136.01 212.37
  A 1.26 1.25 44.8 0 1 134.24 212.37
  Q 127.56 205.69 121.44 199.56
  Q 119.79 197.92 117.93 198.22
  Q 116.72 198.41 115.09 200.04
  Q 108.60 206.53 102.35 212.78
  A 0.45 0.45 0.0 0 0 102.34 213.41
  Z
  M 185.00 263.04
  Q 184.70 264.05 183.56 265.06
  Q 176.67 271.18 169.08 279.63
  A 0.54 0.53 43.8 0 0 169.10 280.36
  L 184.64 295.87
  A 0.79 0.79 0.0 0 0 185.76 295.87
  L 201.45 280.17
  A 0.60 0.59 43.7 0 0 201.43 279.31
  Q 192.98 271.54 185.25 263.04
  L 201.75 246.71
  L 217.85 262.50
  A 0.91 0.88 44.8 0 0 219.10 262.52
  L 234.87 246.88
  A 0.55 0.54 44.6 0 0 234.86 246.10
  L 219.01 230.38
  A 0.61 0.59 45.3 0 1 219.00 229.52
  L 234.94 213.66
  A 0.52 0.51 45.0 0 1 235.67 213.67
  L 251.60 229.48
  A 0.48 0.46 44.6 0 0 252.26 229.49
  L 268.16 213.57
  A 0.57 0.56 45.4 0 0 268.16 212.78
  Q 261.56 206.19 255.57 199.94
  Q 252.18 196.40 248.56 200.06
  Q 242.73 205.98 235.88 212.59
  A 0.85 0.83 45.5 0 1 234.70 212.57
  Q 228.46 206.25 221.78 199.75
  Q 220.52 198.53 219.41 198.27
  Q 217.77 197.89 216.46 198.72
  Q 216.31 198.81 213.69 201.44
  Q 207.89 207.28 202.00 213.04
  L 201.75 213.04
  Q 195.06 206.49 188.46 199.84
  Q 186.90 198.28 185.42 198.22
  Q 183.35 198.14 181.90 199.78
  Q 180.67 201.18 180.59 201.25
  Q 174.70 206.93 169.09 212.89
  A 0.52 0.52 44.6 0 0 169.10 213.61
  L 184.56 229.18
  A 0.99 0.97 45.2 0 1 184.57 230.56
  L 169.39 245.74
  A 1.17 1.17 -44.8 0 1 167.74 245.74
  L 152.29 230.41
  A 0.77 0.77 -45.1 0 0 151.20 230.42
  L 135.73 246.15
  A 0.67 0.66 -45.3 0 0 135.73 247.10
  L 151.39 262.65
  A 0.51 0.51 0.0 0 0 152.11 262.65
  L 168.08 246.92
  A 0.68 0.66 -45.0 0 1 169.03 246.91
  L 185.00 263.04
  Z"
/>
<path fill="#ffffff" d="
  M 102.34 213.41
  A 0.45 0.45 7.0 0 1 102.35 212.78
  Q 108.60 206.53 115.09 200.04
  Q 116.72 198.41 117.93 198.22
  Q 119.79 197.92 121.44 199.56
  Q 127.56 205.69 134.24 212.37
  A 1.26 1.25 44.8 0 0 136.01 212.37
  L 149.69 198.69
  Q 151.80 196.57 154.00 198.75
  L 168.20 212.83
  A 0.52 0.50 -45.0 0 1 168.19 213.56
  L 152.51 229.12
  A 0.91 0.90 44.8 0 1 151.24 229.12
  L 135.77 213.77
  A 0.85 0.83 -44.8 0 0 134.59 213.78
  L 119.12 229.26
  A 0.86 0.85 -45.0 0 1 117.91 229.27
  L 102.34 213.41
  Z"
/>
<path fill="#ffffff" d="
  M 201.75 213.04
  L 185.95 229.15
  A 1.02 1.00 -45.4 0 0 185.95 230.57
  L 201.79 246.50
  L 201.75 246.71
  L 185.25 263.04
  L 185.00 263.04
  L 169.03 246.91
  A 0.68 0.66 -45.0 0 0 168.08 246.92
  L 152.11 262.65
  A 0.51 0.51 -0.0 0 1 151.39 262.65
  L 135.73 247.10
  A 0.67 0.66 -45.3 0 1 135.73 246.15
  L 151.20 230.42
  A 0.77 0.77 -44.8 0 1 152.29 230.41
  L 167.74 245.74
  A 1.17 1.17 -44.8 0 0 169.39 245.74
  L 184.57 230.56
  A 0.99 0.97 45.2 0 0 184.56 229.18
  L 169.10 213.61
  A 0.52 0.52 44.6 0 1 169.09 212.89
  Q 174.70 206.93 180.59 201.25
  Q 180.67 201.18 181.90 199.78
  Q 183.35 198.14 185.42 198.22
  Q 186.90 198.28 188.46 199.84
  Q 195.06 206.49 201.75 213.04
  Z"
/>
<path fill="#ffffff" d="
  M 201.75 246.71
  L 201.79 246.50
  L 217.89 230.46
  A 0.87 0.85 45.7 0 0 217.89 229.25
  L 202.00 213.04
  Q 207.89 207.28 213.69 201.44
  Q 216.31 198.81 216.46 198.72
  Q 217.77 197.89 219.41 198.27
  Q 220.52 198.53 221.78 199.75
  Q 228.46 206.25 234.70 212.57
  A 0.85 0.83 45.5 0 0 235.88 212.59
  Q 242.73 205.98 248.56 200.06
  Q 252.18 196.40 255.57 199.94
  Q 261.56 206.19 268.16 212.78
  A 0.57 0.56 45.4 0 1 268.16 213.57
  L 252.26 229.49
  A 0.48 0.46 44.6 0 1 251.60 229.48
  L 235.67 213.67
  A 0.52 0.51 45.0 0 0 234.94 213.66
  L 219.00 229.52
  A 0.61 0.59 45.3 0 0 219.01 230.38
  L 234.86 246.10
  A 0.55 0.54 44.6 0 1 234.87 246.88
  L 219.10 262.52
  A 0.91 0.88 44.8 0 1 217.85 262.50
  L 201.75 246.71
  Z"
/>
<path fill="#040503" d="
  M 201.75 213.04
  L 202.00 213.04
  L 217.89 229.25
  A 0.87 0.85 45.7 0 1 217.89 230.46
  L 201.79 246.50
  L 185.95 230.57
  A 1.02 1.00 -45.4 0 1 185.95 229.15
  L 201.75 213.04
  Z"
/>
<path fill="#ffffff" d="
  M 185.00 263.04
  L 185.25 263.04
  Q 192.98 271.54 201.43 279.31
  A 0.60 0.59 43.7 0 1 201.45 280.17
  L 185.76 295.87
  A 0.79 0.79 -0.0 0 1 184.64 295.87
  L 169.10 280.36
  A 0.54 0.53 43.8 0 1 169.08 279.63
  Q 176.67 271.18 183.56 265.06
  Q 184.70 264.05 185.00 263.04
  Z"
/>
</svg>
